<?xml version="1.0" encoding="UTF-8" standalone="no"?>
<!DOCTYPE svg PUBLIC "-//W3C//DTD SVG 1.1//EN"
 "http://www.w3.org/Graphics/SVG/1.1/DTD/svg11.dtd">
<!-- Generated by graphviz version 2.43.0 (0)
 -->
<!-- Title: %3 Pages: 1 -->
<svg width="1361pt" height="238pt"
 viewBox="0.00 0.00 1360.50 237.74" xmlns="http://www.w3.org/2000/svg" xmlns:xlink="http://www.w3.org/1999/xlink">
<g id="graph0" class="graph" transform="scale(1 1) rotate(0) translate(36 201.74)">
<title>%3</title>
<polygon fill="dimgray" stroke="transparent" points="-36,36 -36,-201.74 1324.5,-201.74 1324.5,36 -36,36"/>
<text text-anchor="middle" x="644.25" y="-150.54" font-family="Helvetica,sans-Serif" font-size="14.00">Sweep&#39;s Plan &amp; Progress</text>
<!-- start -->
<g id="node1" class="node">
<title>start</title>
</g>
<!-- a098fb5a&#45;ee53&#45;4e3c&#45;83f1&#45;13ea5fa5e590 -->
<g id="node3" class="node">
<title>a098fb5a&#45;ee53&#45;4e3c&#45;83f1&#45;13ea5fa5e590</title>
<ellipse fill="#0ee832" stroke="black" cx="247.5" cy="-99.87" rx="152.97" ry="26.74"/>
<text text-anchor="middle" x="247.5" y="-103.67" font-family="Helvetica,sans-Serif" font-size="14.00">✓ Modify</text>
<text text-anchor="middle" x="247.5" y="-88.67" font-family="Helvetica,sans-Serif" font-size="14.00">src/components/Features.tsx</text>
</g>
<!-- start&#45;&gt;a098fb5a&#45;ee53&#45;4e3c&#45;83f1&#45;13ea5fa5e590 -->
<g id="edge6" class="edge">
<title>start&#45;&gt;a098fb5a&#45;ee53&#45;4e3c&#45;83f1&#45;13ea5fa5e590</title>
<path fill="none" stroke="black" d="M43.09,-99.87C46.31,-99.87 62.48,-99.87 84.43,-99.87"/>
<polygon fill="black" stroke="black" points="84.54,-103.37 94.54,-99.87 84.54,-96.37 84.54,-103.37"/>
<text text-anchor="middle" x="68.88" y="-106.67" font-family="Helvetica,sans-Serif" font-size="14.00">Start</text>
</g>
<!-- end -->
<g id="node2" class="node">
<title>end</title>
</g>
<!-- 242685be&#45;e746&#45;4891&#45;abd9&#45;56f4d5c26557 -->
<g id="node4" class="node">
<title>242685be&#45;e746&#45;4891&#45;abd9&#45;56f4d5c26557</title>
<ellipse fill="#0ee832" stroke="black" cx="631.5" cy="-99.87" rx="152.97" ry="26.74"/>
<text text-anchor="middle" x="631.5" y="-103.67" font-family="Helvetica,sans-Serif" font-size="14.00">✓ Modify</text>
<text text-anchor="middle" x="631.5" y="-88.67" font-family="Helvetica,sans-Serif" font-size="14.00">src/components/Features.tsx</text>
</g>
<!-- a098fb5a&#45;ee53&#45;4e3c&#45;83f1&#45;13ea5fa5e590&#45;&gt;242685be&#45;e746&#45;4891&#45;abd9&#45;56f4d5c26557 -->
<g id="edge2" class="edge">
<title>a098fb5a&#45;ee53&#45;4e3c&#45;83f1&#45;13ea5fa5e590&#45;&gt;242685be&#45;e746&#45;4891&#45;abd9&#45;56f4d5c26557</title>
<path fill="none" stroke="black" d="M400.5,-99.87C423.16,-99.87 445.83,-99.87 468.49,-99.87"/>
<polygon fill="black" stroke="black" points="468.55,-103.37 478.55,-99.87 468.55,-96.37 468.55,-103.37"/>
</g>
<!-- c688057a&#45;9a3f&#45;4943&#45;9459&#45;001990b72c9b -->
<g id="node6" class="node">
<title>c688057a&#45;9a3f&#45;4943&#45;9459&#45;001990b72c9b</title>
<polygon fill="#0ee832" stroke="black" points="409,-36 0,-36 0,0 409,0 409,-36"/>
<text text-anchor="middle" x="204.5" y="-14.3" font-family="Helvetica,sans-Serif" font-size="14.00">✓ Run GitHub Actions for `src/components/Features.tsx`</text>
</g>
<!-- a098fb5a&#45;ee53&#45;4e3c&#45;83f1&#45;13ea5fa5e590&#45;&gt;c688057a&#45;9a3f&#45;4943&#45;9459&#45;001990b72c9b -->
<g id="edge1" class="edge">
<title>a098fb5a&#45;ee53&#45;4e3c&#45;83f1&#45;13ea5fa5e590&#45;&gt;c688057a&#45;9a3f&#45;4943&#45;9459&#45;001990b72c9b</title>
<path fill="none" stroke="black" stroke-dasharray="5,2" d="M233.42,-72.72C228.67,-63.9 223.37,-54.05 218.62,-45.23"/>
<polygon fill="black" stroke="black" points="221.55,-43.29 213.73,-36.15 215.39,-46.61 221.55,-43.29"/>
</g>
<!-- 5a6b0e49&#45;23ec&#45;46af&#45;a8e4&#45;e243d460257c -->
<g id="node5" class="node">
<title>5a6b0e49&#45;23ec&#45;46af&#45;a8e4&#45;e243d460257c</title>
<ellipse fill="#0ee832" stroke="black" cx="1030.5" cy="-99.87" rx="169" ry="26.74"/>
<text text-anchor="middle" x="1030.5" y="-103.67" font-family="Helvetica,sans-Serif" font-size="14.00">✓ Modify</text>
<text text-anchor="middle" x="1030.5" y="-88.67" font-family="Helvetica,sans-Serif" font-size="14.00">src/components/CallToAction.tsx</text>
</g>
<!-- 242685be&#45;e746&#45;4891&#45;abd9&#45;56f4d5c26557&#45;&gt;5a6b0e49&#45;23ec&#45;46af&#45;a8e4&#45;e243d460257c -->
<g id="edge4" class="edge">
<title>242685be&#45;e746&#45;4891&#45;abd9&#45;56f4d5c26557&#45;&gt;5a6b0e49&#45;23ec&#45;46af&#45;a8e4&#45;e243d460257c</title>
<path fill="none" stroke="black" d="M784.24,-99.87C806.49,-99.87 828.73,-99.87 850.98,-99.87"/>
<polygon fill="black" stroke="black" points="851.2,-103.37 861.2,-99.87 851.2,-96.37 851.2,-103.37"/>
</g>
<!-- 8f04875f&#45;c87b&#45;40ab&#45;89d4&#45;9ae5c3cdb977 -->
<g id="node7" class="node">
<title>8f04875f&#45;c87b&#45;40ab&#45;89d4&#45;9ae5c3cdb977</title>
<polygon fill="#0ee832" stroke="black" points="836,-36 427,-36 427,0 836,0 836,-36"/>
<text text-anchor="middle" x="631.5" y="-14.3" font-family="Helvetica,sans-Serif" font-size="14.00">✓ Run GitHub Actions for `src/components/Features.tsx`</text>
</g>
<!-- 242685be&#45;e746&#45;4891&#45;abd9&#45;56f4d5c26557&#45;&gt;8f04875f&#45;c87b&#45;40ab&#45;89d4&#45;9ae5c3cdb977 -->
<g id="edge3" class="edge">
<title>242685be&#45;e746&#45;4891&#45;abd9&#45;56f4d5c26557&#45;&gt;8f04875f&#45;c87b&#45;40ab&#45;89d4&#45;9ae5c3cdb977</title>
<path fill="none" stroke="black" stroke-dasharray="5,2" d="M631.5,-72.72C631.5,-64.27 631.5,-54.89 631.5,-46.36"/>
<polygon fill="black" stroke="black" points="635,-46.15 631.5,-36.15 628,-46.15 635,-46.15"/>
</g>
<!-- 5a6b0e49&#45;23ec&#45;46af&#45;a8e4&#45;e243d460257c&#45;&gt;end -->
<g id="edge7" class="edge">
<title>5a6b0e49&#45;23ec&#45;46af&#45;a8e4&#45;e243d460257c&#45;&gt;end</title>
<path fill="none" stroke="black" d="M1199.63,-99.87C1219.57,-99.87 1236.47,-99.87 1246.77,-99.87"/>
<polygon fill="black" stroke="black" points="1246.86,-103.37 1256.86,-99.87 1246.86,-96.37 1246.86,-103.37"/>
<text text-anchor="middle" x="1228.25" y="-106.67" font-family="Helvetica,sans-Serif" font-size="14.00">Finish</text>
</g>
<!-- 8f41de56&#45;f47c&#45;42b5&#45;8272&#45;7f30ced015e2 -->
<g id="node8" class="node">
<title>8f41de56&#45;f47c&#45;42b5&#45;8272&#45;7f30ced015e2</title>
<polygon fill="yellow" stroke="black" points="1288.5,-36 854.5,-36 854.5,0 1288.5,0 1288.5,-36"/>
<text text-anchor="middle" x="1071.5" y="-14.3" font-family="Helvetica,sans-Serif" font-size="14.00">⋯ Run GitHub Actions for `src/components/CallToAction.tsx`</text>
</g>
<!-- 5a6b0e49&#45;23ec&#45;46af&#45;a8e4&#45;e243d460257c&#45;&gt;8f41de56&#45;f47c&#45;42b5&#45;8272&#45;7f30ced015e2 -->
<g id="edge5" class="edge">
<title>5a6b0e49&#45;23ec&#45;46af&#45;a8e4&#45;e243d460257c&#45;&gt;8f41de56&#45;f47c&#45;42b5&#45;8272&#45;7f30ced015e2</title>
<path fill="none" stroke="black" stroke-dasharray="5,2" d="M1043.92,-72.72C1048.45,-63.9 1053.51,-54.05 1058.04,-45.23"/>
<polygon fill="black" stroke="black" points="1061.25,-46.64 1062.7,-36.15 1055.02,-43.44 1061.25,-46.64"/>
</g>
</g>
</svg>
