<?xml version="1.0" encoding="UTF-8" standalone="no"?>
<!DOCTYPE svg PUBLIC "-//W3C//DTD SVG 1.1//EN"
 "http://www.w3.org/Graphics/SVG/1.1/DTD/svg11.dtd">
<!-- Generated by graphviz version 2.43.0 (0)
 -->
<!-- Title: %3 Pages: 1 -->
<svg width="545pt" height="240pt"
 viewBox="0.00 0.00 545.00 239.74" xmlns="http://www.w3.org/2000/svg" xmlns:xlink="http://www.w3.org/1999/xlink">
<g id="graph0" class="graph" transform="scale(1 1) rotate(0) translate(36 203.74)">
<title>%3</title>
<polygon fill="white" stroke="transparent" points="-36,36 -36,-203.74 509,-203.74 509,36 -36,36"/>
<text text-anchor="middle" x="236.5" y="-152.54" font-family="Times,serif" font-size="14.00">Sweep&#39;s Plan &amp; Progress</text>
<!-- start -->
<g id="node1" class="node">
<title>start</title>
</g>
<!-- 51487805&#45;7182&#45;4f9b&#45;aa1b&#45;e52724df0a43 -->
<g id="node3" class="node">
<title>51487805&#45;7182&#45;4f9b&#45;aa1b&#45;e52724df0a43</title>
<ellipse fill="yellow" stroke="black" cx="232.5" cy="-101.87" rx="176.55" ry="26.74"/>
<text text-anchor="middle" x="232.5" y="-105.67" font-family="Times,serif" font-size="14.00">⋯ Modify</text>
<text text-anchor="middle" x="232.5" y="-90.67" font-family="Times,serif" font-size="14.00">src/components/Testimonials.tsx</text>
</g>
<!-- start&#45;&gt;51487805&#45;7182&#45;4f9b&#45;aa1b&#45;e52724df0a43 -->
<g id="edge2" class="edge">
<title>start&#45;&gt;51487805&#45;7182&#45;4f9b&#45;aa1b&#45;e52724df0a43</title>
<path fill="none" stroke="black" d="M1.17,-101.87C4.69,-101.87 21.93,-101.87 45.54,-101.87"/>
<polygon fill="black" stroke="black" points="45.65,-105.37 55.65,-101.87 45.65,-98.37 45.65,-105.37"/>
<text text-anchor="middle" x="28.36" y="-108.67" font-family="Times,serif" font-size="14.00">Start</text>
</g>
<!-- end -->
<g id="node2" class="node">
<title>end</title>
</g>
<!-- 51487805&#45;7182&#45;4f9b&#45;aa1b&#45;e52724df0a43&#45;&gt;end -->
<g id="edge3" class="edge">
<title>51487805&#45;7182&#45;4f9b&#45;aa1b&#45;e52724df0a43&#45;&gt;end</title>
<path fill="none" stroke="black" d="M409.44,-101.87C431.6,-101.87 450.39,-101.87 461.55,-101.87"/>
<polygon fill="black" stroke="black" points="461.8,-105.37 471.8,-101.87 461.8,-98.37 461.8,-105.37"/>
<text text-anchor="middle" x="440.64" y="-108.67" font-family="Times,serif" font-size="14.00">Finish</text>
</g>
<!-- b5d0ab65&#45;cf8f&#45;4a8b&#45;bac9&#45;42c936cf41a9 -->
<g id="node4" class="node">
<title>b5d0ab65&#45;cf8f&#45;4a8b&#45;bac9&#45;42c936cf41a9</title>
<polygon fill="white" stroke="black" points="357.5,-38 107.5,-38 107.5,0 357.5,0 357.5,-38"/>
<text text-anchor="middle" x="232.5" y="-22.8" font-family="Times,serif" font-size="14.00">▶ Check</text>
<text text-anchor="middle" x="232.5" y="-7.8" font-family="Times,serif" font-size="14.00">src/components/Testimonials.tsx</text>
</g>
<!-- 51487805&#45;7182&#45;4f9b&#45;aa1b&#45;e52724df0a43&#45;&gt;b5d0ab65&#45;cf8f&#45;4a8b&#45;bac9&#45;42c936cf41a9 -->
<g id="edge1" class="edge">
<title>51487805&#45;7182&#45;4f9b&#45;aa1b&#45;e52724df0a43&#45;&gt;b5d0ab65&#45;cf8f&#45;4a8b&#45;bac9&#45;42c936cf41a9</title>
<path fill="none" stroke="black" stroke-dasharray="5,2" d="M232.5,-74.84C232.5,-66.3 232.5,-56.78 232.5,-48.1"/>
<polygon fill="black" stroke="black" points="236,-48.05 232.5,-38.05 229,-48.05 236,-48.05"/>
</g>
</g>
</svg>
