<?xml version="1.0" encoding="UTF-8" standalone="no"?>
<!DOCTYPE svg PUBLIC "-//W3C//DTD SVG 1.1//EN"
 "http://www.w3.org/Graphics/SVG/1.1/DTD/svg11.dtd">
<!-- Generated by graphviz version 2.43.0 (0)
 -->
<!-- Title: %3 Pages: 1 -->
<svg width="1203pt" height="165pt"
 viewBox="0.00 0.00 1203.00 164.74" xmlns="http://www.w3.org/2000/svg" xmlns:xlink="http://www.w3.org/1999/xlink">
<g id="graph0" class="graph" transform="scale(1 1) rotate(0) translate(36 128.74)">
<title>%3</title>
<polygon fill="dimgray" stroke="transparent" points="-36,36 -36,-128.74 1167,-128.74 1167,36 -36,36"/>
<text text-anchor="middle" x="565.5" y="-77.54" font-family="Helvetica,sans-Serif" font-size="14.00">Sweep&#39;s Plan &amp; Progress</text>
<!-- start -->
<g id="node1" class="node">
<title>start</title>
</g>
<!-- 303162ad&#45;5d86&#45;4471&#45;9334&#45;1c1cbdfd6ac0 -->
<g id="node3" class="node">
<title>303162ad&#45;5d86&#45;4471&#45;9334&#45;1c1cbdfd6ac0</title>
<ellipse fill="yellow" stroke="black" cx="221.5" cy="-26.87" rx="169" ry="26.74"/>
<text text-anchor="middle" x="221.5" y="-30.67" font-family="Helvetica,sans-Serif" font-size="14.00">⋯ Modify</text>
<text text-anchor="middle" x="221.5" y="-15.67" font-family="Helvetica,sans-Serif" font-size="14.00">src/components/CallToAction.tsx</text>
</g>
<!-- start&#45;&gt;303162ad&#45;5d86&#45;4471&#45;9334&#45;1c1cbdfd6ac0 -->
<g id="edge3" class="edge">
<title>start&#45;&gt;303162ad&#45;5d86&#45;4471&#45;9334&#45;1c1cbdfd6ac0</title>
<path fill="none" stroke="black" d="M1.13,-26.87C4.44,-26.87 20.41,-26.87 42.37,-26.87"/>
<polygon fill="black" stroke="black" points="42.49,-30.37 52.49,-26.87 42.49,-23.37 42.49,-30.37"/>
<text text-anchor="middle" x="26.75" y="-33.67" font-family="Helvetica,sans-Serif" font-size="14.00">Start</text>
</g>
<!-- end -->
<g id="node2" class="node">
<title>end</title>
</g>
<!-- ef6b5b58&#45;c7f1&#45;4754&#45;9751&#45;f0be89f45491 -->
<g id="node4" class="node">
<title>ef6b5b58&#45;c7f1&#45;4754&#45;9751&#45;f0be89f45491</title>
<ellipse fill="white" stroke="black" cx="578.5" cy="-26.87" rx="152.97" ry="26.74"/>
<text text-anchor="middle" x="578.5" y="-30.67" font-family="Helvetica,sans-Serif" font-size="14.00">▶ Modify</text>
<text text-anchor="middle" x="578.5" y="-15.67" font-family="Helvetica,sans-Serif" font-size="14.00">src/components/Features.tsx</text>
</g>
<!-- 303162ad&#45;5d86&#45;4471&#45;9334&#45;1c1cbdfd6ac0&#45;&gt;ef6b5b58&#45;c7f1&#45;4754&#45;9751&#45;f0be89f45491 -->
<g id="edge1" class="edge">
<title>303162ad&#45;5d86&#45;4471&#45;9334&#45;1c1cbdfd6ac0&#45;&gt;ef6b5b58&#45;c7f1&#45;4754&#45;9751&#45;f0be89f45491</title>
<path fill="none" stroke="black" d="M390.59,-26.87C398.85,-26.87 407.11,-26.87 415.37,-26.87"/>
<polygon fill="black" stroke="black" points="415.45,-30.37 425.45,-26.87 415.45,-23.37 415.45,-30.37"/>
</g>
<!-- def80491&#45;1968&#45;4d14&#45;9c8b&#45;c06760996d22 -->
<g id="node5" class="node">
<title>def80491&#45;1968&#45;4d14&#45;9c8b&#45;c06760996d22</title>
<ellipse fill="white" stroke="black" cx="919.5" cy="-26.87" rx="152.97" ry="26.74"/>
<text text-anchor="middle" x="919.5" y="-30.67" font-family="Helvetica,sans-Serif" font-size="14.00">▶ Modify</text>
<text text-anchor="middle" x="919.5" y="-15.67" font-family="Helvetica,sans-Serif" font-size="14.00">src/components/Features.tsx</text>
</g>
<!-- ef6b5b58&#45;c7f1&#45;4754&#45;9751&#45;f0be89f45491&#45;&gt;def80491&#45;1968&#45;4d14&#45;9c8b&#45;c06760996d22 -->
<g id="edge2" class="edge">
<title>ef6b5b58&#45;c7f1&#45;4754&#45;9751&#45;f0be89f45491&#45;&gt;def80491&#45;1968&#45;4d14&#45;9c8b&#45;c06760996d22</title>
<path fill="none" stroke="black" d="M731.35,-26.87C739.71,-26.87 748.07,-26.87 756.43,-26.87"/>
<polygon fill="black" stroke="black" points="756.63,-30.37 766.63,-26.87 756.63,-23.37 756.63,-30.37"/>
</g>
<!-- def80491&#45;1968&#45;4d14&#45;9c8b&#45;c06760996d22&#45;&gt;end -->
<g id="edge4" class="edge">
<title>def80491&#45;1968&#45;4d14&#45;9c8b&#45;c06760996d22&#45;&gt;end</title>
<path fill="none" stroke="black" d="M1072.28,-26.87C1092.14,-26.87 1109.18,-26.87 1119.61,-26.87"/>
<polygon fill="black" stroke="black" points="1119.85,-30.37 1129.85,-26.87 1119.85,-23.37 1119.85,-30.37"/>
<text text-anchor="middle" x="1101.12" y="-33.67" font-family="Helvetica,sans-Serif" font-size="14.00">Finish</text>
</g>
</g>
</svg>
