<?xml version="1.0" encoding="UTF-8" standalone="no"?>
<!DOCTYPE svg PUBLIC "-//W3C//DTD SVG 1.1//EN"
 "http://www.w3.org/Graphics/SVG/1.1/DTD/svg11.dtd">
<!-- Generated by graphviz version 2.43.0 (0)
 -->
<!-- Title: %3 Pages: 1 -->
<svg width="1353pt" height="238pt"
 viewBox="0.00 0.00 1353.00 237.74" xmlns="http://www.w3.org/2000/svg" xmlns:xlink="http://www.w3.org/1999/xlink">
<g id="graph0" class="graph" transform="scale(1 1) rotate(0) translate(36 201.74)">
<title>%3</title>
<polygon fill="dimgray" stroke="transparent" points="-36,36 -36,-201.74 1317,-201.74 1317,36 -36,36"/>
<text text-anchor="middle" x="640.5" y="-150.54" font-family="Helvetica,sans-Serif" font-size="14.00">Sweep&#39;s Plan &amp; Progress</text>
<!-- start -->
<g id="node1" class="node">
<title>start</title>
</g>
<!-- 691a343e&#45;4014&#45;497b&#45;9a2e&#45;32e058f24b0f -->
<g id="node3" class="node">
<title>691a343e&#45;4014&#45;497b&#45;9a2e&#45;32e058f24b0f</title>
<ellipse fill="yellow" stroke="black" cx="243.5" cy="-99.87" rx="152.97" ry="26.74"/>
<text text-anchor="middle" x="243.5" y="-103.67" font-family="Helvetica,sans-Serif" font-size="14.00">⋯ Modify</text>
<text text-anchor="middle" x="243.5" y="-88.67" font-family="Helvetica,sans-Serif" font-size="14.00">src/components/Features.tsx</text>
</g>
<!-- start&#45;&gt;691a343e&#45;4014&#45;497b&#45;9a2e&#45;32e058f24b0f -->
<g id="edge6" class="edge">
<title>start&#45;&gt;691a343e&#45;4014&#45;497b&#45;9a2e&#45;32e058f24b0f</title>
<path fill="none" stroke="black" d="M39.09,-99.87C42.31,-99.87 58.48,-99.87 80.43,-99.87"/>
<polygon fill="black" stroke="black" points="80.54,-103.37 90.54,-99.87 80.54,-96.37 80.54,-103.37"/>
<text text-anchor="middle" x="64.88" y="-106.67" font-family="Helvetica,sans-Serif" font-size="14.00">Start</text>
</g>
<!-- end -->
<g id="node2" class="node">
<title>end</title>
</g>
<!-- d14510d8&#45;b586&#45;4b9f&#45;b9e1&#45;2b09f6fd2dc2 -->
<g id="node4" class="node">
<title>d14510d8&#45;b586&#45;4b9f&#45;b9e1&#45;2b09f6fd2dc2</title>
<ellipse fill="white" stroke="black" cx="640.5" cy="-99.87" rx="169" ry="26.74"/>
<text text-anchor="middle" x="640.5" y="-103.67" font-family="Helvetica,sans-Serif" font-size="14.00">▶ Modify</text>
<text text-anchor="middle" x="640.5" y="-88.67" font-family="Helvetica,sans-Serif" font-size="14.00">src/components/CallToAction.tsx</text>
</g>
<!-- 691a343e&#45;4014&#45;497b&#45;9a2e&#45;32e058f24b0f&#45;&gt;d14510d8&#45;b586&#45;4b9f&#45;b9e1&#45;2b09f6fd2dc2 -->
<g id="edge2" class="edge">
<title>691a343e&#45;4014&#45;497b&#45;9a2e&#45;32e058f24b0f&#45;&gt;d14510d8&#45;b586&#45;4b9f&#45;b9e1&#45;2b09f6fd2dc2</title>
<path fill="none" stroke="black" d="M396.25,-99.87C417.8,-99.87 439.36,-99.87 460.91,-99.87"/>
<polygon fill="black" stroke="black" points="461.15,-103.37 471.15,-99.87 461.15,-96.37 461.15,-103.37"/>
</g>
<!-- 8217576c&#45;599b&#45;4759&#45;b577&#45;ba5bf0aa5d19 -->
<g id="node6" class="node">
<title>8217576c&#45;599b&#45;4759&#45;b577&#45;ba5bf0aa5d19</title>
<polygon fill="white" stroke="black" points="407,-36 0,-36 0,0 407,0 407,-36"/>
<text text-anchor="middle" x="203.5" y="-14.3" font-family="Helvetica,sans-Serif" font-size="14.00">▶ Run GitHub Actions for `src/components/Features.tsx`</text>
</g>
<!-- 691a343e&#45;4014&#45;497b&#45;9a2e&#45;32e058f24b0f&#45;&gt;8217576c&#45;599b&#45;4759&#45;b577&#45;ba5bf0aa5d19 -->
<g id="edge1" class="edge">
<title>691a343e&#45;4014&#45;497b&#45;9a2e&#45;32e058f24b0f&#45;&gt;8217576c&#45;599b&#45;4759&#45;b577&#45;ba5bf0aa5d19</title>
<path fill="none" stroke="black" stroke-dasharray="5,2" d="M230.4,-72.72C225.99,-63.9 221.06,-54.05 216.64,-45.23"/>
<polygon fill="black" stroke="black" points="219.69,-43.52 212.09,-36.15 213.44,-46.66 219.69,-43.52"/>
</g>
<!-- a8e1e360&#45;5645&#45;48fc&#45;b783&#45;e0a71940e7ec -->
<g id="node5" class="node">
<title>a8e1e360&#45;5645&#45;48fc&#45;b783&#45;e0a71940e7ec</title>
<ellipse fill="white" stroke="black" cx="1037.5" cy="-99.87" rx="152.97" ry="26.74"/>
<text text-anchor="middle" x="1037.5" y="-103.67" font-family="Helvetica,sans-Serif" font-size="14.00">▶ Modify</text>
<text text-anchor="middle" x="1037.5" y="-88.67" font-family="Helvetica,sans-Serif" font-size="14.00">src/components/Features.tsx</text>
</g>
<!-- d14510d8&#45;b586&#45;4b9f&#45;b9e1&#45;2b09f6fd2dc2&#45;&gt;a8e1e360&#45;5645&#45;48fc&#45;b783&#45;e0a71940e7ec -->
<g id="edge4" class="edge">
<title>d14510d8&#45;b586&#45;4b9f&#45;b9e1&#45;2b09f6fd2dc2&#45;&gt;a8e1e360&#45;5645&#45;48fc&#45;b783&#45;e0a71940e7ec</title>
<path fill="none" stroke="black" d="M809.54,-99.87C831.06,-99.87 852.58,-99.87 874.11,-99.87"/>
<polygon fill="black" stroke="black" points="874.34,-103.37 884.34,-99.87 874.34,-96.37 874.34,-103.37"/>
</g>
<!-- f5449d96&#45;a60f&#45;46c2&#45;882d&#45;3a6730224e12 -->
<g id="node7" class="node">
<title>f5449d96&#45;a60f&#45;46c2&#45;882d&#45;3a6730224e12</title>
<polygon fill="white" stroke="black" points="856,-36 425,-36 425,0 856,0 856,-36"/>
<text text-anchor="middle" x="640.5" y="-14.3" font-family="Helvetica,sans-Serif" font-size="14.00">▶ Run GitHub Actions for `src/components/CallToAction.tsx`</text>
</g>
<!-- d14510d8&#45;b586&#45;4b9f&#45;b9e1&#45;2b09f6fd2dc2&#45;&gt;f5449d96&#45;a60f&#45;46c2&#45;882d&#45;3a6730224e12 -->
<g id="edge3" class="edge">
<title>d14510d8&#45;b586&#45;4b9f&#45;b9e1&#45;2b09f6fd2dc2&#45;&gt;f5449d96&#45;a60f&#45;46c2&#45;882d&#45;3a6730224e12</title>
<path fill="none" stroke="black" stroke-dasharray="5,2" d="M640.5,-72.72C640.5,-64.27 640.5,-54.89 640.5,-46.36"/>
<polygon fill="black" stroke="black" points="644,-46.15 640.5,-36.15 637,-46.15 644,-46.15"/>
</g>
<!-- a8e1e360&#45;5645&#45;48fc&#45;b783&#45;e0a71940e7ec&#45;&gt;end -->
<g id="edge7" class="edge">
<title>a8e1e360&#45;5645&#45;48fc&#45;b783&#45;e0a71940e7ec&#45;&gt;end</title>
<path fill="none" stroke="black" d="M1190.28,-99.87C1210.14,-99.87 1227.18,-99.87 1237.61,-99.87"/>
<polygon fill="black" stroke="black" points="1237.85,-103.37 1247.85,-99.87 1237.85,-96.37 1237.85,-103.37"/>
<text text-anchor="middle" x="1219.12" y="-106.67" font-family="Helvetica,sans-Serif" font-size="14.00">Finish</text>
</g>
<!-- 2c57ce73&#45;4a97&#45;4d88&#45;b012&#45;95cc03e0ff14 -->
<g id="node8" class="node">
<title>2c57ce73&#45;4a97&#45;4d88&#45;b012&#45;95cc03e0ff14</title>
<polygon fill="white" stroke="black" points="1281,-36 874,-36 874,0 1281,0 1281,-36"/>
<text text-anchor="middle" x="1077.5" y="-14.3" font-family="Helvetica,sans-Serif" font-size="14.00">▶ Run GitHub Actions for `src/components/Features.tsx`</text>
</g>
<!-- a8e1e360&#45;5645&#45;48fc&#45;b783&#45;e0a71940e7ec&#45;&gt;2c57ce73&#45;4a97&#45;4d88&#45;b012&#45;95cc03e0ff14 -->
<g id="edge5" class="edge">
<title>a8e1e360&#45;5645&#45;48fc&#45;b783&#45;e0a71940e7ec&#45;&gt;2c57ce73&#45;4a97&#45;4d88&#45;b012&#45;95cc03e0ff14</title>
<path fill="none" stroke="black" stroke-dasharray="5,2" d="M1050.6,-72.72C1055.01,-63.9 1059.94,-54.05 1064.36,-45.23"/>
<polygon fill="black" stroke="black" points="1067.56,-46.66 1068.91,-36.15 1061.31,-43.52 1067.56,-46.66"/>
</g>
</g>
</svg>
