<?xml version="1.0" encoding="UTF-8" standalone="no"?>
<!DOCTYPE svg PUBLIC "-//W3C//DTD SVG 1.1//EN"
 "http://www.w3.org/Graphics/SVG/1.1/DTD/svg11.dtd">
<!-- Generated by graphviz version 2.43.0 (0)
 -->
<!-- Title: %3 Pages: 1 -->
<svg width="521pt" height="165pt"
 viewBox="0.00 0.00 521.00 164.74" xmlns="http://www.w3.org/2000/svg" xmlns:xlink="http://www.w3.org/1999/xlink">
<g id="graph0" class="graph" transform="scale(1 1) rotate(0) translate(36 128.74)">
<title>%3</title>
<polygon fill="dimgray" stroke="transparent" points="-36,36 -36,-128.74 485,-128.74 485,36 -36,36"/>
<text text-anchor="middle" x="224.5" y="-77.54" font-family="Helvetica,sans-Serif" font-size="14.00">Sweep&#39;s Plan &amp; Progress</text>
<!-- start -->
<g id="node1" class="node">
<title>start</title>
</g>
<!-- 321065c4&#45;89d8&#45;4883&#45;880f&#45;a865d4e5f4db -->
<g id="node3" class="node">
<title>321065c4&#45;89d8&#45;4883&#45;880f&#45;a865d4e5f4db</title>
<ellipse fill="#0ee832" stroke="black" cx="221.5" cy="-26.87" rx="169" ry="26.74"/>
<text text-anchor="middle" x="221.5" y="-30.67" font-family="Helvetica,sans-Serif" font-size="14.00">✓ Modify</text>
<text text-anchor="middle" x="221.5" y="-15.67" font-family="Helvetica,sans-Serif" font-size="14.00">src/components/CallToAction.tsx</text>
</g>
<!-- start&#45;&gt;321065c4&#45;89d8&#45;4883&#45;880f&#45;a865d4e5f4db -->
<g id="edge1" class="edge">
<title>start&#45;&gt;321065c4&#45;89d8&#45;4883&#45;880f&#45;a865d4e5f4db</title>
<path fill="none" stroke="black" d="M1.13,-26.87C4.44,-26.87 20.41,-26.87 42.37,-26.87"/>
<polygon fill="black" stroke="black" points="42.49,-30.37 52.49,-26.87 42.49,-23.37 42.49,-30.37"/>
<text text-anchor="middle" x="26.75" y="-33.67" font-family="Helvetica,sans-Serif" font-size="14.00">Start</text>
</g>
<!-- end -->
<g id="node2" class="node">
<title>end</title>
</g>
<!-- 321065c4&#45;89d8&#45;4883&#45;880f&#45;a865d4e5f4db&#45;&gt;end -->
<g id="edge2" class="edge">
<title>321065c4&#45;89d8&#45;4883&#45;880f&#45;a865d4e5f4db&#45;&gt;end</title>
<path fill="none" stroke="black" d="M390.63,-26.87C410.57,-26.87 427.47,-26.87 437.77,-26.87"/>
<polygon fill="black" stroke="black" points="437.86,-30.37 447.86,-26.87 437.86,-23.37 437.86,-30.37"/>
<text text-anchor="middle" x="419.25" y="-33.67" font-family="Helvetica,sans-Serif" font-size="14.00">Finish</text>
</g>
</g>
</svg>
