<?xml version="1.0" encoding="UTF-8" standalone="no"?>
<!DOCTYPE svg PUBLIC "-//W3C//DTD SVG 1.1//EN"
 "http://www.w3.org/Graphics/SVG/1.1/DTD/svg11.dtd">
<!-- Generated by graphviz version 2.43.0 (0)
 -->
<!-- Title: %3 Pages: 1 -->
<svg width="521pt" height="240pt"
 viewBox="0.00 0.00 521.00 239.74" xmlns="http://www.w3.org/2000/svg" xmlns:xlink="http://www.w3.org/1999/xlink">
<g id="graph0" class="graph" transform="scale(1 1) rotate(0) translate(36 203.74)">
<title>%3</title>
<polygon fill="dimgray" stroke="transparent" points="-36,36 -36,-203.74 485,-203.74 485,36 -36,36"/>
<text text-anchor="middle" x="224.5" y="-152.54" font-family="Helvetica,sans-Serif" font-size="14.00">Sweep&#39;s Plan &amp; Progress</text>
<!-- start -->
<g id="node1" class="node">
<title>start</title>
</g>
<!-- 6a69f535&#45;e3b4&#45;4ca9&#45;87de&#45;03582956202f -->
<g id="node3" class="node">
<title>6a69f535&#45;e3b4&#45;4ca9&#45;87de&#45;03582956202f</title>
<ellipse fill="#0ee832" stroke="black" cx="221.5" cy="-101.87" rx="169" ry="26.74"/>
<text text-anchor="middle" x="221.5" y="-105.67" font-family="Helvetica,sans-Serif" font-size="14.00">✓ Modify</text>
<text text-anchor="middle" x="221.5" y="-90.67" font-family="Helvetica,sans-Serif" font-size="14.00">src/components/CallToAction.tsx</text>
</g>
<!-- start&#45;&gt;6a69f535&#45;e3b4&#45;4ca9&#45;87de&#45;03582956202f -->
<g id="edge2" class="edge">
<title>start&#45;&gt;6a69f535&#45;e3b4&#45;4ca9&#45;87de&#45;03582956202f</title>
<path fill="none" stroke="black" d="M1.13,-101.87C4.44,-101.87 20.41,-101.87 42.37,-101.87"/>
<polygon fill="black" stroke="black" points="42.49,-105.37 52.49,-101.87 42.49,-98.37 42.49,-105.37"/>
<text text-anchor="middle" x="26.75" y="-108.67" font-family="Helvetica,sans-Serif" font-size="14.00">Start</text>
</g>
<!-- end -->
<g id="node2" class="node">
<title>end</title>
</g>
<!-- 6a69f535&#45;e3b4&#45;4ca9&#45;87de&#45;03582956202f&#45;&gt;end -->
<g id="edge3" class="edge">
<title>6a69f535&#45;e3b4&#45;4ca9&#45;87de&#45;03582956202f&#45;&gt;end</title>
<path fill="none" stroke="black" d="M390.63,-101.87C410.57,-101.87 427.47,-101.87 437.77,-101.87"/>
<polygon fill="black" stroke="black" points="437.86,-105.37 447.86,-101.87 437.86,-98.37 437.86,-105.37"/>
<text text-anchor="middle" x="419.25" y="-108.67" font-family="Helvetica,sans-Serif" font-size="14.00">Finish</text>
</g>
<!-- 4c89bee2&#45;0637&#45;4a54&#45;b215&#45;f128ff82915c -->
<g id="node4" class="node">
<title>4c89bee2&#45;0637&#45;4a54&#45;b215&#45;f128ff82915c</title>
<polygon fill="yellow" stroke="black" points="341,-38 102,-38 102,0 341,0 341,-38"/>
<text text-anchor="middle" x="221.5" y="-22.8" font-family="Helvetica,sans-Serif" font-size="14.00">⋯ Check</text>
<text text-anchor="middle" x="221.5" y="-7.8" font-family="Helvetica,sans-Serif" font-size="14.00">src/components/CallToAction.tsx</text>
</g>
<!-- 6a69f535&#45;e3b4&#45;4ca9&#45;87de&#45;03582956202f&#45;&gt;4c89bee2&#45;0637&#45;4a54&#45;b215&#45;f128ff82915c -->
<g id="edge1" class="edge">
<title>6a69f535&#45;e3b4&#45;4ca9&#45;87de&#45;03582956202f&#45;&gt;4c89bee2&#45;0637&#45;4a54&#45;b215&#45;f128ff82915c</title>
<path fill="none" stroke="black" stroke-dasharray="5,2" d="M221.5,-74.84C221.5,-66.3 221.5,-56.78 221.5,-48.1"/>
<polygon fill="black" stroke="black" points="225,-48.05 221.5,-38.05 218,-48.05 225,-48.05"/>
</g>
</g>
</svg>
