<?xml version="1.0" encoding="UTF-8" standalone="no"?>
<!DOCTYPE svg PUBLIC "-//W3C//DTD SVG 1.1//EN"
 "http://www.w3.org/Graphics/SVG/1.1/DTD/svg11.dtd">
<!-- Generated by graphviz version 2.43.0 (0)
 -->
<!-- Title: %3 Pages: 1 -->
<svg width="1357pt" height="238pt"
 viewBox="0.00 0.00 1357.00 237.74" xmlns="http://www.w3.org/2000/svg" xmlns:xlink="http://www.w3.org/1999/xlink">
<g id="graph0" class="graph" transform="scale(1 1) rotate(0) translate(36 201.74)">
<title>%3</title>
<polygon fill="dimgray" stroke="transparent" points="-36,36 -36,-201.74 1321,-201.74 1321,36 -36,36"/>
<text text-anchor="middle" x="642.5" y="-150.54" font-family="Helvetica,sans-Serif" font-size="14.00">Sweep&#39;s Plan &amp; Progress</text>
<!-- start -->
<g id="node1" class="node">
<title>start</title>
</g>
<!-- a098fb5a&#45;ee53&#45;4e3c&#45;83f1&#45;13ea5fa5e590 -->
<g id="node3" class="node">
<title>a098fb5a&#45;ee53&#45;4e3c&#45;83f1&#45;13ea5fa5e590</title>
<ellipse fill="#0ee832" stroke="black" cx="248.5" cy="-99.87" rx="152.97" ry="26.74"/>
<text text-anchor="middle" x="248.5" y="-103.67" font-family="Helvetica,sans-Serif" font-size="14.00">✓ Modify</text>
<text text-anchor="middle" x="248.5" y="-88.67" font-family="Helvetica,sans-Serif" font-size="14.00">src/components/Features.tsx</text>
</g>
<!-- start&#45;&gt;a098fb5a&#45;ee53&#45;4e3c&#45;83f1&#45;13ea5fa5e590 -->
<g id="edge6" class="edge">
<title>start&#45;&gt;a098fb5a&#45;ee53&#45;4e3c&#45;83f1&#45;13ea5fa5e590</title>
<path fill="none" stroke="black" d="M44.09,-99.87C47.31,-99.87 63.48,-99.87 85.43,-99.87"/>
<polygon fill="black" stroke="black" points="85.54,-103.37 95.54,-99.87 85.54,-96.37 85.54,-103.37"/>
<text text-anchor="middle" x="69.88" y="-106.67" font-family="Helvetica,sans-Serif" font-size="14.00">Start</text>
</g>
<!-- end -->
<g id="node2" class="node">
<title>end</title>
</g>
<!-- 242685be&#45;e746&#45;4891&#45;abd9&#45;56f4d5c26557 -->
<g id="node4" class="node">
<title>242685be&#45;e746&#45;4891&#45;abd9&#45;56f4d5c26557</title>
<ellipse fill="white" stroke="black" cx="632.5" cy="-99.87" rx="152.97" ry="26.74"/>
<text text-anchor="middle" x="632.5" y="-103.67" font-family="Helvetica,sans-Serif" font-size="14.00">▶ Modify</text>
<text text-anchor="middle" x="632.5" y="-88.67" font-family="Helvetica,sans-Serif" font-size="14.00">src/components/Features.tsx</text>
</g>
<!-- a098fb5a&#45;ee53&#45;4e3c&#45;83f1&#45;13ea5fa5e590&#45;&gt;242685be&#45;e746&#45;4891&#45;abd9&#45;56f4d5c26557 -->
<g id="edge2" class="edge">
<title>a098fb5a&#45;ee53&#45;4e3c&#45;83f1&#45;13ea5fa5e590&#45;&gt;242685be&#45;e746&#45;4891&#45;abd9&#45;56f4d5c26557</title>
<path fill="none" stroke="black" d="M401.5,-99.87C424.16,-99.87 446.83,-99.87 469.49,-99.87"/>
<polygon fill="black" stroke="black" points="469.55,-103.37 479.55,-99.87 469.55,-96.37 469.55,-103.37"/>
</g>
<!-- c688057a&#45;9a3f&#45;4943&#45;9459&#45;001990b72c9b -->
<g id="node6" class="node">
<title>c688057a&#45;9a3f&#45;4943&#45;9459&#45;001990b72c9b</title>
<polygon fill="yellow" stroke="black" points="411,-36 0,-36 0,0 411,0 411,-36"/>
<text text-anchor="middle" x="205.5" y="-14.3" font-family="Helvetica,sans-Serif" font-size="14.00">⋯ Run GitHub Actions for `src/components/Features.tsx`</text>
</g>
<!-- a098fb5a&#45;ee53&#45;4e3c&#45;83f1&#45;13ea5fa5e590&#45;&gt;c688057a&#45;9a3f&#45;4943&#45;9459&#45;001990b72c9b -->
<g id="edge1" class="edge">
<title>a098fb5a&#45;ee53&#45;4e3c&#45;83f1&#45;13ea5fa5e590&#45;&gt;c688057a&#45;9a3f&#45;4943&#45;9459&#45;001990b72c9b</title>
<path fill="none" stroke="black" stroke-dasharray="5,2" d="M234.42,-72.72C229.67,-63.9 224.37,-54.05 219.62,-45.23"/>
<polygon fill="black" stroke="black" points="222.55,-43.29 214.73,-36.15 216.39,-46.61 222.55,-43.29"/>
</g>
<!-- 5a6b0e49&#45;23ec&#45;46af&#45;a8e4&#45;e243d460257c -->
<g id="node5" class="node">
<title>5a6b0e49&#45;23ec&#45;46af&#45;a8e4&#45;e243d460257c</title>
<ellipse fill="white" stroke="black" cx="1029.5" cy="-99.87" rx="169" ry="26.74"/>
<text text-anchor="middle" x="1029.5" y="-103.67" font-family="Helvetica,sans-Serif" font-size="14.00">▶ Modify</text>
<text text-anchor="middle" x="1029.5" y="-88.67" font-family="Helvetica,sans-Serif" font-size="14.00">src/components/CallToAction.tsx</text>
</g>
<!-- 242685be&#45;e746&#45;4891&#45;abd9&#45;56f4d5c26557&#45;&gt;5a6b0e49&#45;23ec&#45;46af&#45;a8e4&#45;e243d460257c -->
<g id="edge4" class="edge">
<title>242685be&#45;e746&#45;4891&#45;abd9&#45;56f4d5c26557&#45;&gt;5a6b0e49&#45;23ec&#45;46af&#45;a8e4&#45;e243d460257c</title>
<path fill="none" stroke="black" d="M785.25,-99.87C806.8,-99.87 828.36,-99.87 849.91,-99.87"/>
<polygon fill="black" stroke="black" points="850.15,-103.37 860.15,-99.87 850.15,-96.37 850.15,-103.37"/>
</g>
<!-- 8f04875f&#45;c87b&#45;40ab&#45;89d4&#45;9ae5c3cdb977 -->
<g id="node7" class="node">
<title>8f04875f&#45;c87b&#45;40ab&#45;89d4&#45;9ae5c3cdb977</title>
<polygon fill="white" stroke="black" points="836,-36 429,-36 429,0 836,0 836,-36"/>
<text text-anchor="middle" x="632.5" y="-14.3" font-family="Helvetica,sans-Serif" font-size="14.00">▶ Run GitHub Actions for `src/components/Features.tsx`</text>
</g>
<!-- 242685be&#45;e746&#45;4891&#45;abd9&#45;56f4d5c26557&#45;&gt;8f04875f&#45;c87b&#45;40ab&#45;89d4&#45;9ae5c3cdb977 -->
<g id="edge3" class="edge">
<title>242685be&#45;e746&#45;4891&#45;abd9&#45;56f4d5c26557&#45;&gt;8f04875f&#45;c87b&#45;40ab&#45;89d4&#45;9ae5c3cdb977</title>
<path fill="none" stroke="black" stroke-dasharray="5,2" d="M632.5,-72.72C632.5,-64.27 632.5,-54.89 632.5,-46.36"/>
<polygon fill="black" stroke="black" points="636,-46.15 632.5,-36.15 629,-46.15 636,-46.15"/>
</g>
<!-- 5a6b0e49&#45;23ec&#45;46af&#45;a8e4&#45;e243d460257c&#45;&gt;end -->
<g id="edge7" class="edge">
<title>5a6b0e49&#45;23ec&#45;46af&#45;a8e4&#45;e243d460257c&#45;&gt;end</title>
<path fill="none" stroke="black" d="M1198.63,-99.87C1218.57,-99.87 1235.47,-99.87 1245.77,-99.87"/>
<polygon fill="black" stroke="black" points="1245.86,-103.37 1255.86,-99.87 1245.86,-96.37 1245.86,-103.37"/>
<text text-anchor="middle" x="1227.25" y="-106.67" font-family="Helvetica,sans-Serif" font-size="14.00">Finish</text>
</g>
<!-- 8f41de56&#45;f47c&#45;42b5&#45;8272&#45;7f30ced015e2 -->
<g id="node8" class="node">
<title>8f41de56&#45;f47c&#45;42b5&#45;8272&#45;7f30ced015e2</title>
<polygon fill="white" stroke="black" points="1285,-36 854,-36 854,0 1285,0 1285,-36"/>
<text text-anchor="middle" x="1069.5" y="-14.3" font-family="Helvetica,sans-Serif" font-size="14.00">▶ Run GitHub Actions for `src/components/CallToAction.tsx`</text>
</g>
<!-- 5a6b0e49&#45;23ec&#45;46af&#45;a8e4&#45;e243d460257c&#45;&gt;8f41de56&#45;f47c&#45;42b5&#45;8272&#45;7f30ced015e2 -->
<g id="edge5" class="edge">
<title>5a6b0e49&#45;23ec&#45;46af&#45;a8e4&#45;e243d460257c&#45;&gt;8f41de56&#45;f47c&#45;42b5&#45;8272&#45;7f30ced015e2</title>
<path fill="none" stroke="black" stroke-dasharray="5,2" d="M1042.6,-72.72C1047.01,-63.9 1051.94,-54.05 1056.36,-45.23"/>
<polygon fill="black" stroke="black" points="1059.56,-46.66 1060.91,-36.15 1053.31,-43.52 1059.56,-46.66"/>
</g>
</g>
</svg>
