<?xml version="1.0" encoding="UTF-8" standalone="no"?>
<!DOCTYPE svg PUBLIC "-//W3C//DTD SVG 1.1//EN"
 "http://www.w3.org/Graphics/SVG/1.1/DTD/svg11.dtd">
<!-- Generated by graphviz version 2.43.0 (0)
 -->
<!-- Title: %3 Pages: 1 -->
<svg width="868pt" height="165pt"
 viewBox="0.00 0.00 868.00 164.74" xmlns="http://www.w3.org/2000/svg" xmlns:xlink="http://www.w3.org/1999/xlink">
<g id="graph0" class="graph" transform="scale(1 1) rotate(0) translate(36 128.74)">
<title>%3</title>
<polygon fill="dimgray" stroke="transparent" points="-36,36 -36,-128.74 832,-128.74 832,36 -36,36"/>
<text text-anchor="middle" x="398" y="-77.54" font-family="Helvetica,sans-Serif" font-size="14.00">Sweep&#39;s Plan &amp; Progress</text>
<!-- start -->
<g id="node1" class="node">
<title>start</title>
</g>
<!-- 8673088e&#45;5505&#45;40d6&#45;a37e&#45;f2aafc863725 -->
<g id="node3" class="node">
<title>8673088e&#45;5505&#45;40d6&#45;a37e&#45;f2aafc863725</title>
<ellipse fill="#0ee832" stroke="black" cx="209.5" cy="-26.87" rx="156.96" ry="26.74"/>
<text text-anchor="middle" x="209.5" y="-30.67" font-family="Helvetica,sans-Serif" font-size="14.00">✓ Create</text>
<text text-anchor="middle" x="209.5" y="-15.67" font-family="Helvetica,sans-Serif" font-size="14.00">src/components/Fireworks.tsx</text>
</g>
<!-- start&#45;&gt;8673088e&#45;5505&#45;40d6&#45;a37e&#45;f2aafc863725 -->
<g id="edge2" class="edge">
<title>start&#45;&gt;8673088e&#45;5505&#45;40d6&#45;a37e&#45;f2aafc863725</title>
<path fill="none" stroke="black" d="M1.1,-26.87C4.34,-26.87 20.46,-26.87 42.4,-26.87"/>
<polygon fill="black" stroke="black" points="42.51,-30.37 52.51,-26.87 42.51,-23.37 42.51,-30.37"/>
<text text-anchor="middle" x="26.76" y="-33.67" font-family="Helvetica,sans-Serif" font-size="14.00">Start</text>
</g>
<!-- end -->
<g id="node2" class="node">
<title>end</title>
</g>
<!-- e0bccd22&#45;e574&#45;496e&#45;bb5e&#45;a35ddc1193d6 -->
<g id="node4" class="node">
<title>e0bccd22&#45;e574&#45;496e&#45;bb5e&#45;a35ddc1193d6</title>
<ellipse fill="yellow" stroke="black" cx="569.5" cy="-26.87" rx="167.67" ry="26.74"/>
<text text-anchor="middle" x="569.5" y="-30.67" font-family="Helvetica,sans-Serif" font-size="14.00">⋯ Create</text>
<text text-anchor="middle" x="569.5" y="-15.67" font-family="Helvetica,sans-Serif" font-size="14.00">src/components/PricingPage.tsx</text>
</g>
<!-- 8673088e&#45;5505&#45;40d6&#45;a37e&#45;f2aafc863725&#45;&gt;e0bccd22&#45;e574&#45;496e&#45;bb5e&#45;a35ddc1193d6 -->
<g id="edge1" class="edge">
<title>8673088e&#45;5505&#45;40d6&#45;a37e&#45;f2aafc863725&#45;&gt;e0bccd22&#45;e574&#45;496e&#45;bb5e&#45;a35ddc1193d6</title>
<path fill="none" stroke="black" d="M366.65,-26.87C375,-26.87 383.36,-26.87 391.72,-26.87"/>
<polygon fill="black" stroke="black" points="391.91,-30.37 401.91,-26.87 391.91,-23.37 391.91,-30.37"/>
</g>
<!-- e0bccd22&#45;e574&#45;496e&#45;bb5e&#45;a35ddc1193d6&#45;&gt;end -->
<g id="edge3" class="edge">
<title>e0bccd22&#45;e574&#45;496e&#45;bb5e&#45;a35ddc1193d6&#45;&gt;end</title>
<path fill="none" stroke="black" d="M737.3,-26.87C757.33,-26.87 774.33,-26.87 784.69,-26.87"/>
<polygon fill="black" stroke="black" points="784.86,-30.37 794.86,-26.87 784.86,-23.37 784.86,-30.37"/>
<text text-anchor="middle" x="766.04" y="-33.67" font-family="Helvetica,sans-Serif" font-size="14.00">Finish</text>
</g>
</g>
</svg>
