<?xml version="1.0" encoding="UTF-8" standalone="no"?>
<!DOCTYPE svg PUBLIC "-//W3C//DTD SVG 1.1//EN"
 "http://www.w3.org/Graphics/SVG/1.1/DTD/svg11.dtd">
<!-- Generated by graphviz version 2.43.0 (0)
 -->
<!-- Title: %3 Pages: 1 -->
<svg width="821pt" height="165pt"
 viewBox="0.00 0.00 821.00 164.74" xmlns="http://www.w3.org/2000/svg" xmlns:xlink="http://www.w3.org/1999/xlink">
<g id="graph0" class="graph" transform="scale(1 1) rotate(0) translate(36 128.74)">
<title>%3</title>
<polygon fill="dimgray" stroke="transparent" points="-36,36 -36,-128.74 785,-128.74 785,36 -36,36"/>
<text text-anchor="middle" x="374.5" y="-77.54" font-family="Helvetica,sans-Serif" font-size="14.00">Sweep&#39;s Plan &amp; Progress</text>
<!-- start -->
<g id="node1" class="node">
<title>start</title>
</g>
<!-- 7463ba13&#45;d4c4&#45;461c&#45;abb1&#45;c84db3cda681 -->
<g id="node3" class="node">
<title>7463ba13&#45;d4c4&#45;461c&#45;abb1&#45;c84db3cda681</title>
<ellipse fill="#0ee832" stroke="black" cx="209.5" cy="-26.87" rx="156.96" ry="26.74"/>
<text text-anchor="middle" x="209.5" y="-30.67" font-family="Helvetica,sans-Serif" font-size="14.00">✓ Create</text>
<text text-anchor="middle" x="209.5" y="-15.67" font-family="Helvetica,sans-Serif" font-size="14.00">src/components/Fireworks.tsx</text>
</g>
<!-- start&#45;&gt;7463ba13&#45;d4c4&#45;461c&#45;abb1&#45;c84db3cda681 -->
<g id="edge2" class="edge">
<title>start&#45;&gt;7463ba13&#45;d4c4&#45;461c&#45;abb1&#45;c84db3cda681</title>
<path fill="none" stroke="black" d="M1.1,-26.87C4.34,-26.87 20.46,-26.87 42.4,-26.87"/>
<polygon fill="black" stroke="black" points="42.51,-30.37 52.51,-26.87 42.51,-23.37 42.51,-30.37"/>
<text text-anchor="middle" x="26.76" y="-33.67" font-family="Helvetica,sans-Serif" font-size="14.00">Start</text>
</g>
<!-- end -->
<g id="node2" class="node">
<title>end</title>
</g>
<!-- ec60588f&#45;4fcb&#45;4dfa&#45;8c0b&#45;e726d9c91c25 -->
<g id="node4" class="node">
<title>ec60588f&#45;4fcb&#45;4dfa&#45;8c0b&#45;e726d9c91c25</title>
<ellipse fill="yellow" stroke="black" cx="546.5" cy="-26.87" rx="144.5" ry="26.74"/>
<text text-anchor="middle" x="546.5" y="-30.67" font-family="Helvetica,sans-Serif" font-size="14.00">⋯ Create</text>
<text text-anchor="middle" x="546.5" y="-15.67" font-family="Helvetica,sans-Serif" font-size="14.00">src/components/Pricing.tsx</text>
</g>
<!-- 7463ba13&#45;d4c4&#45;461c&#45;abb1&#45;c84db3cda681&#45;&gt;ec60588f&#45;4fcb&#45;4dfa&#45;8c0b&#45;e726d9c91c25 -->
<g id="edge1" class="edge">
<title>7463ba13&#45;d4c4&#45;461c&#45;abb1&#45;c84db3cda681&#45;&gt;ec60588f&#45;4fcb&#45;4dfa&#45;8c0b&#45;e726d9c91c25</title>
<path fill="none" stroke="black" d="M366.48,-26.87C374.9,-26.87 383.31,-26.87 391.73,-26.87"/>
<polygon fill="black" stroke="black" points="391.99,-30.37 401.99,-26.87 391.99,-23.37 391.99,-30.37"/>
</g>
<!-- ec60588f&#45;4fcb&#45;4dfa&#45;8c0b&#45;e726d9c91c25&#45;&gt;end -->
<g id="edge3" class="edge">
<title>ec60588f&#45;4fcb&#45;4dfa&#45;8c0b&#45;e726d9c91c25&#45;&gt;end</title>
<path fill="none" stroke="black" d="M690.89,-26.87C710.45,-26.87 727.33,-26.87 737.68,-26.87"/>
<polygon fill="black" stroke="black" points="737.85,-30.37 747.85,-26.87 737.85,-23.37 737.85,-30.37"/>
<text text-anchor="middle" x="719.37" y="-33.67" font-family="Helvetica,sans-Serif" font-size="14.00">Finish</text>
</g>
</g>
</svg>
