<?xml version="1.0" encoding="UTF-8" standalone="no"?>
<!DOCTYPE svg PUBLIC "-//W3C//DTD SVG 1.1//EN"
 "http://www.w3.org/Graphics/SVG/1.1/DTD/svg11.dtd">
<!-- Generated by graphviz version 2.43.0 (0)
 -->
<!-- Title: %3 Pages: 1 -->
<svg width="928pt" height="238pt"
 viewBox="0.00 0.00 928.00 237.74" xmlns="http://www.w3.org/2000/svg" xmlns:xlink="http://www.w3.org/1999/xlink">
<g id="graph0" class="graph" transform="scale(1 1) rotate(0) translate(36 201.74)">
<title>%3</title>
<polygon fill="dimgray" stroke="transparent" points="-36,36 -36,-201.74 892,-201.74 892,36 -36,36"/>
<text text-anchor="middle" x="428" y="-150.54" font-family="Helvetica,sans-Serif" font-size="14.00">Sweep&#39;s Plan &amp; Progress</text>
<!-- start -->
<g id="node1" class="node">
<title>start</title>
</g>
<!-- ee514cc4&#45;657c&#45;40f0&#45;ab01&#45;742a54869694 -->
<g id="node3" class="node">
<title>ee514cc4&#45;657c&#45;40f0&#45;ab01&#45;742a54869694</title>
<ellipse fill="yellow" stroke="black" cx="243.5" cy="-99.87" rx="152.97" ry="26.74"/>
<text text-anchor="middle" x="243.5" y="-103.67" font-family="Helvetica,sans-Serif" font-size="14.00">⋯ Modify</text>
<text text-anchor="middle" x="243.5" y="-88.67" font-family="Helvetica,sans-Serif" font-size="14.00">src/components/Features.tsx</text>
</g>
<!-- start&#45;&gt;ee514cc4&#45;657c&#45;40f0&#45;ab01&#45;742a54869694 -->
<g id="edge4" class="edge">
<title>start&#45;&gt;ee514cc4&#45;657c&#45;40f0&#45;ab01&#45;742a54869694</title>
<path fill="none" stroke="black" d="M39.09,-99.87C42.31,-99.87 58.48,-99.87 80.43,-99.87"/>
<polygon fill="black" stroke="black" points="80.54,-103.37 90.54,-99.87 80.54,-96.37 80.54,-103.37"/>
<text text-anchor="middle" x="64.88" y="-106.67" font-family="Helvetica,sans-Serif" font-size="14.00">Start</text>
</g>
<!-- end -->
<g id="node2" class="node">
<title>end</title>
</g>
<!-- dddd7834&#45;649c&#45;42e1&#45;a004&#45;4c221422c13c -->
<g id="node4" class="node">
<title>dddd7834&#45;649c&#45;42e1&#45;a004&#45;4c221422c13c</title>
<ellipse fill="white" stroke="black" cx="620.5" cy="-99.87" rx="169" ry="26.74"/>
<text text-anchor="middle" x="620.5" y="-103.67" font-family="Helvetica,sans-Serif" font-size="14.00">▶ Modify</text>
<text text-anchor="middle" x="620.5" y="-88.67" font-family="Helvetica,sans-Serif" font-size="14.00">src/components/CallToAction.tsx</text>
</g>
<!-- ee514cc4&#45;657c&#45;40f0&#45;ab01&#45;742a54869694&#45;&gt;dddd7834&#45;649c&#45;42e1&#45;a004&#45;4c221422c13c -->
<g id="edge2" class="edge">
<title>ee514cc4&#45;657c&#45;40f0&#45;ab01&#45;742a54869694&#45;&gt;dddd7834&#45;649c&#45;42e1&#45;a004&#45;4c221422c13c</title>
<path fill="none" stroke="black" d="M396.29,-99.87C411.23,-99.87 426.18,-99.87 441.12,-99.87"/>
<polygon fill="black" stroke="black" points="441.47,-103.37 451.47,-99.87 441.47,-96.37 441.47,-103.37"/>
</g>
<!-- 6becc19a&#45;edb1&#45;4260&#45;bf09&#45;1ce50983560f -->
<g id="node5" class="node">
<title>6becc19a&#45;edb1&#45;4260&#45;bf09&#45;1ce50983560f</title>
<polygon fill="white" stroke="black" points="407,-36 0,-36 0,0 407,0 407,-36"/>
<text text-anchor="middle" x="203.5" y="-14.3" font-family="Helvetica,sans-Serif" font-size="14.00">▶ Run GitHub Actions for `src/components/Features.tsx`</text>
</g>
<!-- ee514cc4&#45;657c&#45;40f0&#45;ab01&#45;742a54869694&#45;&gt;6becc19a&#45;edb1&#45;4260&#45;bf09&#45;1ce50983560f -->
<g id="edge1" class="edge">
<title>ee514cc4&#45;657c&#45;40f0&#45;ab01&#45;742a54869694&#45;&gt;6becc19a&#45;edb1&#45;4260&#45;bf09&#45;1ce50983560f</title>
<path fill="none" stroke="black" stroke-dasharray="5,2" d="M230.4,-72.72C225.99,-63.9 221.06,-54.05 216.64,-45.23"/>
<polygon fill="black" stroke="black" points="219.69,-43.52 212.09,-36.15 213.44,-46.66 219.69,-43.52"/>
</g>
<!-- dddd7834&#45;649c&#45;42e1&#45;a004&#45;4c221422c13c&#45;&gt;end -->
<g id="edge5" class="edge">
<title>dddd7834&#45;649c&#45;42e1&#45;a004&#45;4c221422c13c&#45;&gt;end</title>
<path fill="none" stroke="black" d="M789.63,-99.87C809.57,-99.87 826.47,-99.87 836.77,-99.87"/>
<polygon fill="black" stroke="black" points="836.86,-103.37 846.86,-99.87 836.86,-96.37 836.86,-103.37"/>
<text text-anchor="middle" x="818.25" y="-106.67" font-family="Helvetica,sans-Serif" font-size="14.00">Finish</text>
</g>
<!-- b70c6731&#45;b928&#45;4e8b&#45;80b6&#45;13836d5e00ad -->
<g id="node6" class="node">
<title>b70c6731&#45;b928&#45;4e8b&#45;80b6&#45;13836d5e00ad</title>
<polygon fill="white" stroke="black" points="856,-36 425,-36 425,0 856,0 856,-36"/>
<text text-anchor="middle" x="640.5" y="-14.3" font-family="Helvetica,sans-Serif" font-size="14.00">▶ Run GitHub Actions for `src/components/CallToAction.tsx`</text>
</g>
<!-- dddd7834&#45;649c&#45;42e1&#45;a004&#45;4c221422c13c&#45;&gt;b70c6731&#45;b928&#45;4e8b&#45;80b6&#45;13836d5e00ad -->
<g id="edge3" class="edge">
<title>dddd7834&#45;649c&#45;42e1&#45;a004&#45;4c221422c13c&#45;&gt;b70c6731&#45;b928&#45;4e8b&#45;80b6&#45;13836d5e00ad</title>
<path fill="none" stroke="black" stroke-dasharray="5,2" d="M627.05,-72.72C629.19,-64.18 631.57,-54.68 633.72,-46.08"/>
<polygon fill="black" stroke="black" points="637.17,-46.7 636.21,-36.15 630.38,-45 637.17,-46.7"/>
</g>
</g>
</svg>
