<?xml version="1.0" encoding="UTF-8" standalone="no"?>
<!DOCTYPE svg PUBLIC "-//W3C//DTD SVG 1.1//EN"
 "http://www.w3.org/Graphics/SVG/1.1/DTD/svg11.dtd">
<!-- Generated by graphviz version 2.43.0 (0)
 -->
<!-- Title: %3 Pages: 1 -->
<svg width="1778pt" height="238pt"
 viewBox="0.00 0.00 1778.00 237.74" xmlns="http://www.w3.org/2000/svg" xmlns:xlink="http://www.w3.org/1999/xlink">
<g id="graph0" class="graph" transform="scale(1 1) rotate(0) translate(36 201.74)">
<title>%3</title>
<polygon fill="dimgray" stroke="transparent" points="-36,36 -36,-201.74 1742,-201.74 1742,36 -36,36"/>
<text text-anchor="middle" x="853" y="-150.54" font-family="Helvetica,sans-Serif" font-size="14.00">Sweep&#39;s Plan &amp; Progress</text>
<!-- start -->
<g id="node1" class="node">
<title>start</title>
</g>
<!-- 3e8efa44&#45;51c0&#45;4720&#45;88c6&#45;389bba84381a -->
<g id="node3" class="node">
<title>3e8efa44&#45;51c0&#45;4720&#45;88c6&#45;389bba84381a</title>
<ellipse fill="yellow" stroke="black" cx="245.5" cy="-99.87" rx="152.97" ry="26.74"/>
<text text-anchor="middle" x="245.5" y="-103.67" font-family="Helvetica,sans-Serif" font-size="14.00">⋯ Modify</text>
<text text-anchor="middle" x="245.5" y="-88.67" font-family="Helvetica,sans-Serif" font-size="14.00">src/components/Features.tsx</text>
</g>
<!-- start&#45;&gt;3e8efa44&#45;51c0&#45;4720&#45;88c6&#45;389bba84381a -->
<g id="edge8" class="edge">
<title>start&#45;&gt;3e8efa44&#45;51c0&#45;4720&#45;88c6&#45;389bba84381a</title>
<path fill="none" stroke="black" d="M41.09,-99.87C44.31,-99.87 60.48,-99.87 82.43,-99.87"/>
<polygon fill="black" stroke="black" points="82.54,-103.37 92.54,-99.87 82.54,-96.37 82.54,-103.37"/>
<text text-anchor="middle" x="66.88" y="-106.67" font-family="Helvetica,sans-Serif" font-size="14.00">Start</text>
</g>
<!-- end -->
<g id="node2" class="node">
<title>end</title>
</g>
<!-- 6e4072a6&#45;3d7f&#45;43a9&#45;b687&#45;9f9c6e20d76c -->
<g id="node4" class="node">
<title>6e4072a6&#45;3d7f&#45;43a9&#45;b687&#45;9f9c6e20d76c</title>
<ellipse fill="white" stroke="black" cx="628.5" cy="-99.87" rx="152.97" ry="26.74"/>
<text text-anchor="middle" x="628.5" y="-103.67" font-family="Helvetica,sans-Serif" font-size="14.00">▶ Modify</text>
<text text-anchor="middle" x="628.5" y="-88.67" font-family="Helvetica,sans-Serif" font-size="14.00">src/components/Features.tsx</text>
</g>
<!-- 3e8efa44&#45;51c0&#45;4720&#45;88c6&#45;389bba84381a&#45;&gt;6e4072a6&#45;3d7f&#45;43a9&#45;b687&#45;9f9c6e20d76c -->
<g id="edge2" class="edge">
<title>3e8efa44&#45;51c0&#45;4720&#45;88c6&#45;389bba84381a&#45;&gt;6e4072a6&#45;3d7f&#45;43a9&#45;b687&#45;9f9c6e20d76c</title>
<path fill="none" stroke="black" d="M398.48,-99.87C420.81,-99.87 443.15,-99.87 465.49,-99.87"/>
<polygon fill="black" stroke="black" points="465.75,-103.37 475.75,-99.87 465.75,-96.37 465.75,-103.37"/>
</g>
<!-- a75da951&#45;39e6&#45;488f&#45;b68f&#45;2ce2150e29c9 -->
<g id="node7" class="node">
<title>a75da951&#45;39e6&#45;488f&#45;b68f&#45;2ce2150e29c9</title>
<polygon fill="white" stroke="black" points="407,-36 0,-36 0,0 407,0 407,-36"/>
<text text-anchor="middle" x="203.5" y="-14.3" font-family="Helvetica,sans-Serif" font-size="14.00">▶ Run GitHub Actions for `src/components/Features.tsx`</text>
</g>
<!-- 3e8efa44&#45;51c0&#45;4720&#45;88c6&#45;389bba84381a&#45;&gt;a75da951&#45;39e6&#45;488f&#45;b68f&#45;2ce2150e29c9 -->
<g id="edge1" class="edge">
<title>3e8efa44&#45;51c0&#45;4720&#45;88c6&#45;389bba84381a&#45;&gt;a75da951&#45;39e6&#45;488f&#45;b68f&#45;2ce2150e29c9</title>
<path fill="none" stroke="black" stroke-dasharray="5,2" d="M231.75,-72.72C227.11,-63.9 221.93,-54.05 217.29,-45.23"/>
<polygon fill="black" stroke="black" points="220.27,-43.37 212.52,-36.15 214.07,-46.63 220.27,-43.37"/>
</g>
<!-- 5afb70fc&#45;381f&#45;4ee9&#45;ad82&#45;e8b2413a314c -->
<g id="node5" class="node">
<title>5afb70fc&#45;381f&#45;4ee9&#45;ad82&#45;e8b2413a314c</title>
<ellipse fill="white" stroke="black" cx="1053.5" cy="-99.87" rx="152.97" ry="26.74"/>
<text text-anchor="middle" x="1053.5" y="-103.67" font-family="Helvetica,sans-Serif" font-size="14.00">▶ Modify</text>
<text text-anchor="middle" x="1053.5" y="-88.67" font-family="Helvetica,sans-Serif" font-size="14.00">src/components/Features.tsx</text>
</g>
<!-- 6e4072a6&#45;3d7f&#45;43a9&#45;b687&#45;9f9c6e20d76c&#45;&gt;5afb70fc&#45;381f&#45;4ee9&#45;ad82&#45;e8b2413a314c -->
<g id="edge4" class="edge">
<title>6e4072a6&#45;3d7f&#45;43a9&#45;b687&#45;9f9c6e20d76c&#45;&gt;5afb70fc&#45;381f&#45;4ee9&#45;ad82&#45;e8b2413a314c</title>
<path fill="none" stroke="black" d="M781.65,-99.87C817.89,-99.87 854.13,-99.87 890.36,-99.87"/>
<polygon fill="black" stroke="black" points="890.58,-103.37 900.58,-99.87 890.58,-96.37 890.58,-103.37"/>
</g>
<!-- 7cdd0d84&#45;9d54&#45;45e2&#45;8c12&#45;abebf49b8395 -->
<g id="node8" class="node">
<title>7cdd0d84&#45;9d54&#45;45e2&#45;8c12&#45;abebf49b8395</title>
<polygon fill="white" stroke="black" points="832,-36 425,-36 425,0 832,0 832,-36"/>
<text text-anchor="middle" x="628.5" y="-14.3" font-family="Helvetica,sans-Serif" font-size="14.00">▶ Run GitHub Actions for `src/components/Features.tsx`</text>
</g>
<!-- 6e4072a6&#45;3d7f&#45;43a9&#45;b687&#45;9f9c6e20d76c&#45;&gt;7cdd0d84&#45;9d54&#45;45e2&#45;8c12&#45;abebf49b8395 -->
<g id="edge3" class="edge">
<title>6e4072a6&#45;3d7f&#45;43a9&#45;b687&#45;9f9c6e20d76c&#45;&gt;7cdd0d84&#45;9d54&#45;45e2&#45;8c12&#45;abebf49b8395</title>
<path fill="none" stroke="black" stroke-dasharray="5,2" d="M628.5,-72.72C628.5,-64.27 628.5,-54.89 628.5,-46.36"/>
<polygon fill="black" stroke="black" points="632,-46.15 628.5,-36.15 625,-46.15 632,-46.15"/>
</g>
<!-- e6be5401&#45;a57e&#45;494e&#45;9730&#45;acfc12db1db4 -->
<g id="node6" class="node">
<title>e6be5401&#45;a57e&#45;494e&#45;9730&#45;acfc12db1db4</title>
<ellipse fill="white" stroke="black" cx="1450.5" cy="-99.87" rx="169" ry="26.74"/>
<text text-anchor="middle" x="1450.5" y="-103.67" font-family="Helvetica,sans-Serif" font-size="14.00">▶ Modify</text>
<text text-anchor="middle" x="1450.5" y="-88.67" font-family="Helvetica,sans-Serif" font-size="14.00">src/components/CallToAction.tsx</text>
</g>
<!-- 5afb70fc&#45;381f&#45;4ee9&#45;ad82&#45;e8b2413a314c&#45;&gt;e6be5401&#45;a57e&#45;494e&#45;9730&#45;acfc12db1db4 -->
<g id="edge6" class="edge">
<title>5afb70fc&#45;381f&#45;4ee9&#45;ad82&#45;e8b2413a314c&#45;&gt;e6be5401&#45;a57e&#45;494e&#45;9730&#45;acfc12db1db4</title>
<path fill="none" stroke="black" d="M1206.25,-99.87C1227.8,-99.87 1249.36,-99.87 1270.91,-99.87"/>
<polygon fill="black" stroke="black" points="1271.15,-103.37 1281.15,-99.87 1271.15,-96.37 1271.15,-103.37"/>
</g>
<!-- 89b79594&#45;3c15&#45;4751&#45;8e36&#45;57ec0bd79f34 -->
<g id="node9" class="node">
<title>89b79594&#45;3c15&#45;4751&#45;8e36&#45;57ec0bd79f34</title>
<polygon fill="white" stroke="black" points="1257,-36 850,-36 850,0 1257,0 1257,-36"/>
<text text-anchor="middle" x="1053.5" y="-14.3" font-family="Helvetica,sans-Serif" font-size="14.00">▶ Run GitHub Actions for `src/components/Features.tsx`</text>
</g>
<!-- 5afb70fc&#45;381f&#45;4ee9&#45;ad82&#45;e8b2413a314c&#45;&gt;89b79594&#45;3c15&#45;4751&#45;8e36&#45;57ec0bd79f34 -->
<g id="edge5" class="edge">
<title>5afb70fc&#45;381f&#45;4ee9&#45;ad82&#45;e8b2413a314c&#45;&gt;89b79594&#45;3c15&#45;4751&#45;8e36&#45;57ec0bd79f34</title>
<path fill="none" stroke="black" stroke-dasharray="5,2" d="M1053.5,-72.72C1053.5,-64.27 1053.5,-54.89 1053.5,-46.36"/>
<polygon fill="black" stroke="black" points="1057,-46.15 1053.5,-36.15 1050,-46.15 1057,-46.15"/>
</g>
<!-- e6be5401&#45;a57e&#45;494e&#45;9730&#45;acfc12db1db4&#45;&gt;end -->
<g id="edge9" class="edge">
<title>e6be5401&#45;a57e&#45;494e&#45;9730&#45;acfc12db1db4&#45;&gt;end</title>
<path fill="none" stroke="black" d="M1619.63,-99.87C1639.57,-99.87 1656.47,-99.87 1666.77,-99.87"/>
<polygon fill="black" stroke="black" points="1666.86,-103.37 1676.86,-99.87 1666.86,-96.37 1666.86,-103.37"/>
<text text-anchor="middle" x="1648.25" y="-106.67" font-family="Helvetica,sans-Serif" font-size="14.00">Finish</text>
</g>
<!-- 2ab0b15a&#45;3862&#45;44c7&#45;a570&#45;2e2f717ea911 -->
<g id="node10" class="node">
<title>2ab0b15a&#45;3862&#45;44c7&#45;a570&#45;2e2f717ea911</title>
<polygon fill="white" stroke="black" points="1706,-36 1275,-36 1275,0 1706,0 1706,-36"/>
<text text-anchor="middle" x="1490.5" y="-14.3" font-family="Helvetica,sans-Serif" font-size="14.00">▶ Run GitHub Actions for `src/components/CallToAction.tsx`</text>
</g>
<!-- e6be5401&#45;a57e&#45;494e&#45;9730&#45;acfc12db1db4&#45;&gt;2ab0b15a&#45;3862&#45;44c7&#45;a570&#45;2e2f717ea911 -->
<g id="edge7" class="edge">
<title>e6be5401&#45;a57e&#45;494e&#45;9730&#45;acfc12db1db4&#45;&gt;2ab0b15a&#45;3862&#45;44c7&#45;a570&#45;2e2f717ea911</title>
<path fill="none" stroke="black" stroke-dasharray="5,2" d="M1463.6,-72.72C1468.01,-63.9 1472.94,-54.05 1477.36,-45.23"/>
<polygon fill="black" stroke="black" points="1480.56,-46.66 1481.91,-36.15 1474.31,-43.52 1480.56,-46.66"/>
</g>
</g>
</svg>
