<?xml version="1.0" encoding="UTF-8" standalone="no"?>
<!DOCTYPE svg PUBLIC "-//W3C//DTD SVG 1.1//EN"
 "http://www.w3.org/Graphics/SVG/1.1/DTD/svg11.dtd">
<!-- Generated by graphviz version 2.43.0 (0)
 -->
<!-- Title: %3 Pages: 1 -->
<svg width="489pt" height="165pt"
 viewBox="0.00 0.00 489.00 164.74" xmlns="http://www.w3.org/2000/svg" xmlns:xlink="http://www.w3.org/1999/xlink">
<g id="graph0" class="graph" transform="scale(1 1) rotate(0) translate(36 128.74)">
<title>%3</title>
<polygon fill="dimgray" stroke="transparent" points="-36,36 -36,-128.74 453,-128.74 453,36 -36,36"/>
<text text-anchor="middle" x="208.5" y="-77.54" font-family="Helvetica,sans-Serif" font-size="14.00">Sweep&#39;s Plan &amp; Progress</text>
<!-- start -->
<g id="node1" class="node">
<title>start</title>
</g>
<!-- 7e3f9b0e&#45;65f3&#45;4e9a&#45;ba21&#45;b926d4789bed -->
<g id="node3" class="node">
<title>7e3f9b0e&#45;65f3&#45;4e9a&#45;ba21&#45;b926d4789bed</title>
<ellipse fill="yellow" stroke="black" cx="205.5" cy="-26.87" rx="152.97" ry="26.74"/>
<text text-anchor="middle" x="205.5" y="-30.67" font-family="Helvetica,sans-Serif" font-size="14.00">⋯ Modify</text>
<text text-anchor="middle" x="205.5" y="-15.67" font-family="Helvetica,sans-Serif" font-size="14.00">src/components/Features.tsx</text>
</g>
<!-- start&#45;&gt;7e3f9b0e&#45;65f3&#45;4e9a&#45;ba21&#45;b926d4789bed -->
<g id="edge1" class="edge">
<title>start&#45;&gt;7e3f9b0e&#45;65f3&#45;4e9a&#45;ba21&#45;b926d4789bed</title>
<path fill="none" stroke="black" d="M1.09,-26.87C4.31,-26.87 20.48,-26.87 42.43,-26.87"/>
<polygon fill="black" stroke="black" points="42.54,-30.37 52.54,-26.87 42.54,-23.37 42.54,-30.37"/>
<text text-anchor="middle" x="26.88" y="-33.67" font-family="Helvetica,sans-Serif" font-size="14.00">Start</text>
</g>
<!-- end -->
<g id="node2" class="node">
<title>end</title>
</g>
<!-- 7e3f9b0e&#45;65f3&#45;4e9a&#45;ba21&#45;b926d4789bed&#45;&gt;end -->
<g id="edge2" class="edge">
<title>7e3f9b0e&#45;65f3&#45;4e9a&#45;ba21&#45;b926d4789bed&#45;&gt;end</title>
<path fill="none" stroke="black" d="M358.28,-26.87C378.14,-26.87 395.18,-26.87 405.61,-26.87"/>
<polygon fill="black" stroke="black" points="405.85,-30.37 415.85,-26.87 405.85,-23.37 405.85,-30.37"/>
<text text-anchor="middle" x="387.12" y="-33.67" font-family="Helvetica,sans-Serif" font-size="14.00">Finish</text>
</g>
</g>
</svg>
