<?xml version="1.0" encoding="UTF-8" standalone="no"?>
<!DOCTYPE svg PUBLIC "-//W3C//DTD SVG 1.1//EN"
 "http://www.w3.org/Graphics/SVG/1.1/DTD/svg11.dtd">
<!-- Generated by graphviz version 2.43.0 (0)
 -->
<!-- Title: %3 Pages: 1 -->
<svg width="862pt" height="165pt"
 viewBox="0.00 0.00 862.00 164.74" xmlns="http://www.w3.org/2000/svg" xmlns:xlink="http://www.w3.org/1999/xlink">
<g id="graph0" class="graph" transform="scale(1 1) rotate(0) translate(36 128.74)">
<title>%3</title>
<polygon fill="dimgray" stroke="transparent" points="-36,36 -36,-128.74 826,-128.74 826,36 -36,36"/>
<text text-anchor="middle" x="395" y="-77.54" font-family="Helvetica,sans-Serif" font-size="14.00">Sweep&#39;s Plan &amp; Progress</text>
<!-- start -->
<g id="node1" class="node">
<title>start</title>
</g>
<!-- d7d7fb68&#45;f2bd&#45;45ec&#45;b5e5&#45;b8d1f44fc7f7 -->
<g id="node3" class="node">
<title>d7d7fb68&#45;f2bd&#45;45ec&#45;b5e5&#45;b8d1f44fc7f7</title>
<ellipse fill="#0ee832" stroke="black" cx="205.5" cy="-26.87" rx="152.97" ry="26.74"/>
<text text-anchor="middle" x="205.5" y="-30.67" font-family="Helvetica,sans-Serif" font-size="14.00">✓ Modify</text>
<text text-anchor="middle" x="205.5" y="-15.67" font-family="Helvetica,sans-Serif" font-size="14.00">src/components/Features.tsx</text>
</g>
<!-- start&#45;&gt;d7d7fb68&#45;f2bd&#45;45ec&#45;b5e5&#45;b8d1f44fc7f7 -->
<g id="edge2" class="edge">
<title>start&#45;&gt;d7d7fb68&#45;f2bd&#45;45ec&#45;b5e5&#45;b8d1f44fc7f7</title>
<path fill="none" stroke="black" d="M1.09,-26.87C4.31,-26.87 20.48,-26.87 42.43,-26.87"/>
<polygon fill="black" stroke="black" points="42.54,-30.37 52.54,-26.87 42.54,-23.37 42.54,-30.37"/>
<text text-anchor="middle" x="26.88" y="-33.67" font-family="Helvetica,sans-Serif" font-size="14.00">Start</text>
</g>
<!-- end -->
<g id="node2" class="node">
<title>end</title>
</g>
<!-- ceb5b41f&#45;2e5f&#45;4409&#45;acd7&#45;866c8219ac28 -->
<g id="node4" class="node">
<title>ceb5b41f&#45;2e5f&#45;4409&#45;acd7&#45;866c8219ac28</title>
<ellipse fill="yellow" stroke="black" cx="562.5" cy="-26.87" rx="169" ry="26.74"/>
<text text-anchor="middle" x="562.5" y="-30.67" font-family="Helvetica,sans-Serif" font-size="14.00">⋯ Modify</text>
<text text-anchor="middle" x="562.5" y="-15.67" font-family="Helvetica,sans-Serif" font-size="14.00">src/components/CallToAction.tsx</text>
</g>
<!-- d7d7fb68&#45;f2bd&#45;45ec&#45;b5e5&#45;b8d1f44fc7f7&#45;&gt;ceb5b41f&#45;2e5f&#45;4409&#45;acd7&#45;866c8219ac28 -->
<g id="edge1" class="edge">
<title>d7d7fb68&#45;f2bd&#45;45ec&#45;b5e5&#45;b8d1f44fc7f7&#45;&gt;ceb5b41f&#45;2e5f&#45;4409&#45;acd7&#45;866c8219ac28</title>
<path fill="none" stroke="black" d="M358.55,-26.87C366.76,-26.87 374.98,-26.87 383.19,-26.87"/>
<polygon fill="black" stroke="black" points="383.21,-30.37 393.21,-26.87 383.21,-23.37 383.21,-30.37"/>
</g>
<!-- ceb5b41f&#45;2e5f&#45;4409&#45;acd7&#45;866c8219ac28&#45;&gt;end -->
<g id="edge3" class="edge">
<title>ceb5b41f&#45;2e5f&#45;4409&#45;acd7&#45;866c8219ac28&#45;&gt;end</title>
<path fill="none" stroke="black" d="M731.63,-26.87C751.57,-26.87 768.47,-26.87 778.77,-26.87"/>
<polygon fill="black" stroke="black" points="778.86,-30.37 788.86,-26.87 778.86,-23.37 778.86,-30.37"/>
<text text-anchor="middle" x="760.25" y="-33.67" font-family="Helvetica,sans-Serif" font-size="14.00">Finish</text>
</g>
</g>
</svg>
