<svg xmlns="http://www.w3.org/2000/svg" xmlns:xlink="http://www.w3.org/1999/xlink" width="1920" zoomAndPan="magnify" viewBox="0 0 1440 809.999993" height="1080" preserveAspectRatio="xMidYMid meet" version="1.0"><defs><g/><clipPath id="b4303f717a"><path d="M 399 319 L 591.75 319 L 591.75 520 L 399 520 Z M 399 319 " clip-rule="nonzero"/></clipPath></defs><path fill="#ad7136" d="M 504.816406 321.777344 C 507.605469 314.316406 512.253906 308.257812 518.296875 303.128906 L 508.070312 290.539062 C 497.84375 298.464844 490.871094 309.65625 488.082031 322.242188 L 495.984375 332.964844 Z M 504.816406 321.777344 " fill-opacity="1" fill-rule="nonzero"/><g clip-path="url(#b4303f717a)"><path fill="#946af9" d="M 518.296875 319.910156 C 510.394531 319.910156 502.957031 321.777344 495.984375 325.039062 C 488.546875 321.777344 481.109375 319.910156 473.207031 319.910156 C 432.761719 319.910156 399.757812 364.667969 399.757812 419.683594 C 399.757812 474.695312 432.761719 519.453125 473.207031 519.453125 C 481.109375 519.453125 488.546875 517.589844 495.984375 514.324219 C 502.957031 517.589844 510.394531 519.453125 518.296875 519.453125 C 558.742188 519.453125 591.746094 474.695312 591.746094 419.683594 C 591.746094 364.667969 558.742188 319.910156 518.296875 319.910156 Z M 518.296875 319.910156 " fill-opacity="1" fill-rule="nonzero"/></g><path fill="#7857c5" d="M 481.109375 518.523438 L 473.207031 519.453125 C 432.761719 519.453125 399.757812 474.695312 399.757812 419.683594 C 399.757812 364.667969 432.761719 319.910156 473.207031 319.910156 L 481.109375 320.378906 C 462.980469 325.972656 448.570312 367.933594 448.570312 419.683594 C 448.570312 471.433594 462.980469 513.394531 481.109375 518.523438 Z M 481.109375 518.523438 " fill-opacity="1" fill-rule="nonzero"/><path fill="#40bc26" d="M 469.953125 393.109375 C 468.636719 394.417969 467.277344 395.683594 465.875 396.902344 C 464.476562 398.121094 463.035156 399.289062 461.554688 400.410156 C 460.070312 401.53125 458.554688 402.601562 457.003906 403.617188 C 455.449219 404.632812 453.863281 405.597656 452.246094 406.503906 C 450.625 407.414062 448.976562 408.265625 447.300781 409.0625 C 445.625 409.859375 443.925781 410.597656 442.199219 411.277344 C 440.472656 411.957031 438.722656 412.578125 436.957031 413.136719 C 435.1875 413.699219 433.402344 414.199219 431.597656 414.636719 C 429.796875 415.078125 427.980469 415.453125 426.152344 415.769531 C 424.324219 416.085938 422.488281 416.335938 420.644531 416.527344 C 418.800781 416.71875 416.949219 416.84375 415.097656 416.910156 C 413.242188 416.972656 411.386719 416.972656 409.535156 416.910156 C 407.679688 416.847656 405.832031 416.722656 403.984375 416.535156 C 402.140625 416.34375 400.304688 416.09375 398.476562 415.78125 C 396.648438 415.464844 394.832031 415.089844 393.03125 414.652344 C 391.226562 414.214844 389.441406 413.714844 387.671875 413.15625 C 387.121094 411.378906 386.632812 409.582031 386.207031 407.773438 C 385.777344 405.960938 385.410156 404.136719 385.105469 402.300781 C 384.800781 400.464844 384.5625 398.621094 384.382812 396.769531 C 384.203125 394.914062 384.085938 393.058594 384.03125 391.199219 C 383.980469 389.335938 383.988281 387.476562 384.0625 385.617188 C 384.136719 383.757812 384.273438 381.902344 384.472656 380.050781 C 384.671875 378.203125 384.929688 376.359375 385.253906 374.527344 C 385.578125 372.695312 385.964844 370.875 386.414062 369.066406 C 386.859375 367.261719 387.367188 365.472656 387.9375 363.699219 C 388.503906 361.929688 389.132812 360.179688 389.820312 358.449219 C 390.507812 356.71875 391.253906 355.015625 392.058594 353.339844 C 392.859375 351.660156 393.71875 350.011719 394.632812 348.394531 C 395.550781 346.773438 396.519531 345.1875 397.539062 343.632812 C 398.5625 342.082031 399.636719 340.5625 400.761719 339.082031 C 401.886719 337.605469 403.0625 336.164062 404.285156 334.765625 C 405.507812 333.363281 406.777344 332.007812 408.09375 330.695312 C 409.410156 329.382812 410.769531 328.113281 412.167969 326.894531 C 413.570312 325.671875 415.011719 324.503906 416.492188 323.378906 C 417.972656 322.257812 419.488281 321.1875 421.042969 320.167969 C 422.597656 319.152344 424.183594 318.1875 425.800781 317.277344 C 427.421875 316.367188 429.066406 315.511719 430.746094 314.714844 C 432.421875 313.914062 434.125 313.175781 435.851562 312.496094 C 437.578125 311.8125 439.324219 311.191406 441.09375 310.628906 C 442.863281 310.066406 444.648438 309.5625 446.453125 309.125 C 448.257812 308.683594 450.074219 308.304688 451.902344 307.988281 C 453.730469 307.671875 455.566406 307.417969 457.414062 307.226562 C 459.261719 307.035156 461.109375 306.90625 462.964844 306.84375 C 464.820312 306.777344 466.675781 306.777344 468.53125 306.839844 C 470.382812 306.898438 472.234375 307.023438 474.082031 307.210938 C 475.929688 307.402344 477.765625 307.652344 479.59375 307.964844 C 481.425781 308.277344 483.242188 308.652344 485.046875 309.089844 C 486.847656 309.527344 488.636719 310.027344 490.40625 310.585938 L 490.871094 312.917969 C 498.773438 340.425781 491.800781 371.195312 469.953125 393.109375 Z M 469.953125 393.109375 " fill-opacity="1" fill-rule="nonzero"/><path fill="#33961e" d="M 490.871094 312.917969 C 485.710938 315.6875 480.6875 318.683594 475.796875 321.90625 C 470.90625 325.128906 466.167969 328.5625 461.582031 332.210938 C 457 335.859375 452.589844 339.703125 448.347656 343.75 C 444.109375 347.792969 440.058594 352.023438 436.195312 356.429688 C 432.335938 360.839844 428.675781 365.414062 425.222656 370.152344 C 421.773438 374.890625 418.539062 379.773438 415.523438 384.804688 C 412.503906 389.832031 409.71875 394.988281 407.164062 400.265625 C 404.609375 405.546875 402.296875 410.929688 400.222656 416.417969 L 387.671875 413.15625 C 387.121094 411.378906 386.632812 409.582031 386.207031 407.773438 C 385.777344 405.960938 385.410156 404.136719 385.105469 402.300781 C 384.800781 400.464844 384.5625 398.621094 384.382812 396.769531 C 384.203125 394.914062 384.085938 393.058594 384.03125 391.199219 C 383.980469 389.335938 383.988281 387.476562 384.0625 385.617188 C 384.136719 383.757812 384.273438 381.902344 384.472656 380.050781 C 384.671875 378.203125 384.929688 376.359375 385.253906 374.527344 C 385.578125 372.695312 385.964844 370.875 386.414062 369.066406 C 386.859375 367.261719 387.367188 365.472656 387.9375 363.699219 C 388.503906 361.929688 389.132812 360.179688 389.820312 358.449219 C 390.507812 356.71875 391.253906 355.015625 392.058594 353.339844 C 392.859375 351.660156 393.71875 350.011719 394.632812 348.394531 C 395.550781 346.773438 396.519531 345.1875 397.539062 343.632812 C 398.5625 342.082031 399.636719 340.5625 400.761719 339.082031 C 401.886719 337.605469 403.0625 336.164062 404.285156 334.765625 C 405.507812 333.363281 406.777344 332.007812 408.09375 330.695312 C 409.410156 329.382812 410.769531 328.113281 412.167969 326.894531 C 413.570312 325.671875 415.011719 324.503906 416.492188 323.378906 C 417.972656 322.257812 419.488281 321.1875 421.042969 320.167969 C 422.597656 319.152344 424.183594 318.1875 425.800781 317.277344 C 427.421875 316.367188 429.066406 315.511719 430.746094 314.714844 C 432.421875 313.914062 434.125 313.175781 435.851562 312.496094 C 437.578125 311.8125 439.324219 311.191406 441.09375 310.628906 C 442.863281 310.066406 444.648438 309.5625 446.453125 309.125 C 448.257812 308.683594 450.074219 308.304688 451.902344 307.988281 C 453.730469 307.671875 455.566406 307.417969 457.414062 307.226562 C 459.261719 307.035156 461.109375 306.90625 462.964844 306.84375 C 464.820312 306.777344 466.675781 306.777344 468.53125 306.839844 C 470.382812 306.898438 472.234375 307.023438 474.082031 307.210938 C 475.929688 307.402344 477.765625 307.652344 479.59375 307.964844 C 481.425781 308.277344 483.242188 308.652344 485.046875 309.089844 C 486.847656 309.527344 488.636719 310.027344 490.40625 310.585938 Z M 490.871094 312.917969 " fill-opacity="1" fill-rule="nonzero"/><g fill="#000000" fill-opacity="1"><g transform="translate(624.344807, 449.787905)"><g><path d="M 20.546875 0 L 8.578125 0 L 8.578125 -66.015625 L 25.640625 -66.015625 L 42.34375 -17.46875 L 43.296875 -17.46875 L 59.921875 -66.015625 L 76.578125 -66.015625 L 76.578125 0 L 64.203125 0 L 64.203125 -43.609375 L 63.078125 -43.796875 L 47.8125 0 L 36.9375 0 L 21.671875 -43.796875 L 20.546875 -43.609375 Z M 20.546875 0 "/></g></g></g><g fill="#000000" fill-opacity="1"><g transform="translate(709.532296, 449.787905)"><g><path d="M 49.21875 -22.078125 L 17.203125 -22.078125 C 17.566406 -17.742188 18.800781 -14.585938 20.90625 -12.609375 C 23.007812 -10.640625 25.882812 -9.65625 29.53125 -9.65625 C 32.382812 -9.65625 34.695312 -10.191406 36.46875 -11.265625 C 38.25 -12.335938 39.679688 -13.957031 40.765625 -16.125 L 41.71875 -16.125 L 50.03125 -10.796875 C 48.40625 -7.296875 45.953125 -4.460938 42.671875 -2.296875 C 39.390625 -0.128906 35.007812 0.953125 29.53125 0.953125 C 24.382812 0.953125 19.9375 -0.0234375 16.1875 -1.984375 C 12.4375 -3.941406 9.546875 -6.851562 7.515625 -10.71875 C 5.484375 -14.59375 4.46875 -19.3125 4.46875 -24.875 C 4.46875 -30.53125 5.535156 -35.300781 7.671875 -39.1875 C 9.804688 -43.070312 12.695312 -45.96875 16.34375 -47.875 C 19.988281 -49.789062 24.082031 -50.75 28.625 -50.75 C 35.664062 -50.75 41.0625 -48.878906 44.8125 -45.140625 C 48.5625 -41.410156 50.4375 -35.9375 50.4375 -28.71875 C 50.4375 -26.09375 50.34375 -24.0625 50.15625 -22.625 Z M 38.46875 -30.15625 C 38.34375 -33.945312 37.457031 -36.707031 35.8125 -38.4375 C 34.175781 -40.175781 31.78125 -41.046875 28.625 -41.046875 C 22.300781 -41.046875 18.582031 -37.414062 17.46875 -30.15625 Z M 38.46875 -30.15625 "/></g></g></g><g fill="#000000" fill-opacity="1"><g transform="translate(763.660435, 449.787905)"><g><path d="M 24.609375 0.953125 C 20.660156 0.953125 17.171875 0 14.140625 -1.90625 C 11.117188 -3.820312 8.75 -6.710938 7.03125 -10.578125 C 5.320312 -14.453125 4.46875 -19.21875 4.46875 -24.875 C 4.46875 -30.5625 5.347656 -35.335938 7.109375 -39.203125 C 8.867188 -43.078125 11.304688 -45.96875 14.421875 -47.875 C 17.535156 -49.789062 21.140625 -50.75 25.234375 -50.75 C 28.335938 -50.75 31.023438 -50.210938 33.296875 -49.140625 C 35.566406 -48.078125 37.488281 -46.414062 39.0625 -44.15625 L 40 -44.390625 L 40 -69.796875 L 52.515625 -69.796875 L 52.515625 0 L 40 0 L 40 -6.453125 L 39.0625 -6.640625 C 37.675781 -4.285156 35.773438 -2.429688 33.359375 -1.078125 C 30.953125 0.273438 28.035156 0.953125 24.609375 0.953125 Z M 28.671875 -9.65625 C 32.191406 -9.65625 34.972656 -10.910156 37.015625 -13.421875 C 39.066406 -15.941406 40.09375 -19.757812 40.09375 -24.875 C 40.09375 -29.988281 39.066406 -33.8125 37.015625 -36.34375 C 34.972656 -38.875 32.191406 -40.140625 28.671875 -40.140625 C 24.992188 -40.140625 22.1875 -38.910156 20.25 -36.453125 C 18.3125 -34.003906 17.34375 -30.144531 17.34375 -24.875 C 17.34375 -19.632812 18.3125 -15.785156 20.25 -13.328125 C 22.1875 -10.878906 24.992188 -9.65625 28.671875 -9.65625 Z M 28.671875 -9.65625 "/></g></g></g><g fill="#000000" fill-opacity="1"><g transform="translate(823.341337, 449.787905)"><g><path d="M 7.171875 20.1875 L 7.171875 -49.796875 L 19.6875 -49.796875 L 19.6875 -43.296875 L 20.640625 -43.125 C 22.109375 -45.644531 24.078125 -47.546875 26.546875 -48.828125 C 29.015625 -50.109375 31.90625 -50.75 35.21875 -50.75 C 39.21875 -50.75 42.710938 -49.800781 45.703125 -47.90625 C 48.703125 -46.007812 51.035156 -43.125 52.703125 -39.25 C 54.378906 -35.382812 55.21875 -30.59375 55.21875 -24.875 C 55.21875 -19.1875 54.335938 -14.414062 52.578125 -10.5625 C 50.816406 -6.707031 48.367188 -3.820312 45.234375 -1.90625 C 42.109375 0 38.5 0.953125 34.40625 0.953125 C 31.300781 0.953125 28.617188 0.429688 26.359375 -0.609375 C 24.109375 -1.648438 22.203125 -3.269531 20.640625 -5.46875 L 19.6875 -5.28125 L 19.6875 20.1875 Z M 30.921875 -9.65625 C 34.660156 -9.65625 37.492188 -10.875 39.421875 -13.3125 C 41.347656 -15.757812 42.3125 -19.613281 42.3125 -24.875 C 42.3125 -30.144531 41.347656 -34.003906 39.421875 -36.453125 C 37.492188 -38.910156 34.660156 -40.140625 30.921875 -40.140625 C 27.429688 -40.140625 24.660156 -38.875 22.609375 -36.34375 C 20.566406 -33.8125 19.546875 -29.988281 19.546875 -24.875 C 19.546875 -19.789062 20.566406 -15.984375 22.609375 -13.453125 C 24.660156 -10.921875 27.429688 -9.65625 30.921875 -9.65625 Z M 30.921875 -9.65625 "/></g></g></g><g fill="#000000" fill-opacity="1"><g transform="translate(882.977093, 449.787905)"><g><path d="M 20.671875 0.953125 C 16.191406 0.953125 12.769531 -0.257812 10.40625 -2.6875 C 8.039062 -5.113281 6.859375 -8.789062 6.859375 -13.71875 L 6.859375 -69.796875 L 19.375 -69.796875 L 19.375 -14.21875 C 19.375 -11.175781 20.632812 -9.65625 23.15625 -9.65625 C 23.882812 -9.65625 24.65625 -9.78125 25.46875 -10.03125 L 26.09375 -9.84375 L 27.21875 -0.21875 C 26.53125 0.132812 25.613281 0.414062 24.46875 0.625 C 23.320312 0.84375 22.054688 0.953125 20.671875 0.953125 Z M 20.671875 0.953125 "/></g></g></g><g fill="#000000" fill-opacity="1"><g transform="translate(911.598645, 449.787905)"><g><path d="M 22.796875 0.953125 C 17.203125 0.953125 13.070312 -0.570312 10.40625 -3.625 C 7.738281 -6.6875 6.40625 -11.078125 6.40625 -16.796875 L 6.40625 -49.796875 L 18.921875 -49.796875 L 18.921875 -18.375 C 18.921875 -15.332031 19.570312 -13.109375 20.875 -11.703125 C 22.1875 -10.304688 24.210938 -9.609375 26.953125 -9.609375 C 30.410156 -9.609375 33.101562 -10.742188 35.03125 -13.015625 C 36.957031 -15.296875 37.921875 -18.875 37.921875 -23.75 L 37.921875 -49.796875 L 50.4375 -49.796875 L 50.4375 0 L 38.421875 0 L 38.421875 -7.3125 L 37.46875 -7.546875 C 35.875 -4.679688 33.925781 -2.546875 31.625 -1.140625 C 29.320312 0.253906 26.378906 0.953125 22.796875 0.953125 Z M 22.796875 0.953125 "/></g></g></g><g fill="#000000" fill-opacity="1"><g transform="translate(969.202903, 449.787905)"><g><path d="M 7.171875 0 L 7.171875 -49.796875 L 19.1875 -49.796875 L 19.1875 -43.125 L 20.140625 -42.9375 C 21.765625 -45.613281 23.664062 -47.582031 25.84375 -48.84375 C 28.03125 -50.113281 30.820312 -50.75 34.21875 -50.75 C 37.988281 -50.75 41.015625 -50.003906 43.296875 -48.515625 C 45.585938 -47.023438 47.257812 -44.847656 48.3125 -41.984375 L 49.265625 -41.984375 C 50.796875 -44.960938 52.769531 -47.164062 55.1875 -48.59375 C 57.613281 -50.03125 60.632812 -50.75 64.25 -50.75 C 74.570312 -50.75 79.734375 -45 79.734375 -33.5 L 79.734375 0 L 67.234375 0 L 67.234375 -31.921875 C 67.234375 -34.835938 66.660156 -36.941406 65.515625 -38.234375 C 64.367188 -39.535156 62.53125 -40.1875 60 -40.1875 C 53.144531 -40.1875 49.71875 -35.59375 49.71875 -26.40625 L 49.71875 0 L 37.203125 0 L 37.203125 -31.921875 C 37.203125 -34.835938 36.625 -36.941406 35.46875 -38.234375 C 34.3125 -39.535156 32.46875 -40.1875 29.9375 -40.1875 C 26.71875 -40.1875 24.203125 -39.109375 22.390625 -36.953125 C 20.585938 -34.804688 19.6875 -31.382812 19.6875 -26.6875 L 19.6875 0 Z M 7.171875 0 "/></g></g></g></svg>