<svg xmlns="http://www.w3.org/2000/svg" xmlns:xlink="http://www.w3.org/1999/xlink" width="896" zoomAndPan="magnify" viewBox="0 0 672 231" height="308" preserveAspectRatio="xMidYMid meet" version="1.0"><defs><g/><clipPath id="528b17c1fb"><path d="M 15 30 L 207.75 30 L 207.75 230 L 15 230 Z M 15 30 " clip-rule="nonzero"/></clipPath></defs><path fill="#ad7136" d="M 120.816406 32.171875 C 123.605469 24.734375 128.253906 18.695312 134.296875 13.582031 L 124.070312 1.035156 C 113.84375 8.9375 106.871094 20.089844 104.082031 32.636719 L 111.984375 43.324219 Z M 120.816406 32.171875 " fill-opacity="1" fill-rule="nonzero"/><g clip-path="url(#528b17c1fb)"><path fill="#946af9" d="M 134.296875 30.3125 C 126.394531 30.3125 118.957031 32.171875 111.984375 35.425781 C 104.546875 32.171875 97.109375 30.3125 89.207031 30.3125 C 48.761719 30.3125 15.757812 74.925781 15.757812 129.761719 C 15.757812 184.597656 48.761719 229.207031 89.207031 229.207031 C 97.109375 229.207031 104.546875 227.347656 111.984375 224.097656 C 118.957031 227.347656 126.394531 229.207031 134.296875 229.207031 C 174.742188 229.207031 207.746094 184.597656 207.746094 129.761719 C 207.746094 74.925781 174.742188 30.3125 134.296875 30.3125 Z M 134.296875 30.3125 " fill-opacity="1" fill-rule="nonzero"/></g><path fill="#7857c5" d="M 97.109375 228.277344 L 89.207031 229.207031 C 48.761719 229.207031 15.757812 184.597656 15.757812 129.761719 C 15.757812 74.925781 48.761719 30.3125 89.207031 30.3125 L 97.109375 30.777344 C 78.980469 36.355469 64.570312 78.175781 64.570312 129.761719 C 64.570312 181.34375 78.980469 223.167969 97.109375 228.277344 Z M 97.109375 228.277344 " fill-opacity="1" fill-rule="nonzero"/><path fill="#40bc26" d="M 85.953125 103.273438 C 84.636719 104.578125 83.277344 105.839844 81.875 107.054688 C 80.476562 108.269531 79.035156 109.433594 77.554688 110.550781 C 76.074219 111.667969 74.554688 112.734375 73.003906 113.746094 C 71.449219 114.757812 69.863281 115.71875 68.246094 116.625 C 66.625 117.53125 64.976562 118.378906 63.300781 119.171875 C 61.625 119.96875 59.925781 120.703125 58.199219 121.378906 C 56.472656 122.058594 54.722656 122.675781 52.957031 123.234375 C 51.1875 123.796875 49.402344 124.292969 47.597656 124.730469 C 45.796875 125.167969 43.980469 125.546875 42.152344 125.859375 C 40.324219 126.175781 38.488281 126.425781 36.644531 126.613281 C 34.800781 126.804688 32.949219 126.929688 31.097656 126.996094 C 29.242188 127.058594 27.386719 127.058594 25.535156 126.996094 C 23.679688 126.933594 21.832031 126.808594 19.984375 126.621094 C 18.140625 126.433594 16.304688 126.183594 14.476562 125.871094 C 12.648438 125.558594 10.832031 125.183594 9.03125 124.746094 C 7.226562 124.308594 5.441406 123.8125 3.671875 123.253906 C 3.121094 121.480469 2.632812 119.695312 2.207031 117.886719 C 1.777344 116.082031 1.410156 114.265625 1.105469 112.433594 C 0.800781 110.605469 0.5625 108.765625 0.382812 106.921875 C 0.203125 105.074219 0.0859375 103.222656 0.03125 101.367188 C -0.0195312 99.511719 -0.0117188 97.660156 0.0625 95.804688 C 0.136719 93.953125 0.273438 92.101562 0.472656 90.257812 C 0.671875 88.414062 0.929688 86.578125 1.253906 84.75 C 1.578125 82.925781 1.964844 81.109375 2.414062 79.308594 C 2.859375 77.507812 3.367188 75.726562 3.9375 73.960938 C 4.503906 72.195312 5.132812 70.449219 5.820312 68.726562 C 6.507812 67.003906 7.253906 65.304688 8.058594 63.632812 C 8.859375 61.960938 9.71875 60.316406 10.632812 58.703125 C 11.550781 57.085938 12.519531 55.507812 13.539062 53.957031 C 14.5625 52.410156 15.636719 50.898438 16.761719 49.421875 C 17.886719 47.949219 19.0625 46.511719 20.285156 45.117188 C 21.507812 43.722656 22.777344 42.371094 24.09375 41.0625 C 25.410156 39.753906 26.769531 38.488281 28.167969 37.273438 C 29.570312 36.054688 31.011719 34.890625 32.492188 33.769531 C 33.972656 32.652344 35.488281 31.585938 37.042969 30.570312 C 38.597656 29.554688 40.183594 28.59375 41.800781 27.6875 C 43.421875 26.777344 45.066406 25.925781 46.746094 25.132812 C 48.421875 24.335938 50.125 23.597656 51.851562 22.917969 C 53.578125 22.238281 55.324219 21.621094 57.09375 21.058594 C 58.863281 20.5 60.648438 20 62.453125 19.558594 C 64.257812 19.121094 66.074219 18.742188 67.902344 18.429688 C 69.730469 18.113281 71.566406 17.859375 73.414062 17.667969 C 75.261719 17.480469 77.109375 17.351562 78.964844 17.285156 C 80.820312 17.222656 82.675781 17.21875 84.53125 17.28125 C 86.382812 17.34375 88.234375 17.46875 90.082031 17.65625 C 91.929688 17.84375 93.765625 18.09375 95.59375 18.40625 C 97.425781 18.71875 99.242188 19.09375 101.046875 19.527344 C 102.847656 19.964844 104.636719 20.460938 106.40625 21.019531 L 106.871094 23.34375 C 114.773438 50.761719 107.800781 81.429688 85.953125 103.273438 Z M 85.953125 103.273438 " fill-opacity="1" fill-rule="nonzero"/><path fill="#33961e" d="M 106.871094 23.34375 C 101.710938 26.101562 96.6875 29.089844 91.796875 32.300781 C 86.90625 35.511719 82.167969 38.933594 77.582031 42.570312 C 73 46.207031 68.589844 50.042969 64.347656 54.074219 C 60.109375 58.105469 56.058594 62.320312 52.195312 66.714844 C 48.335938 71.109375 44.675781 75.667969 41.222656 80.390625 C 37.773438 85.113281 34.539062 89.980469 31.523438 94.996094 C 28.503906 100.007812 25.71875 105.144531 23.164062 110.40625 C 20.609375 115.671875 18.296875 121.039062 16.222656 126.507812 L 3.671875 123.253906 C 3.121094 121.480469 2.632812 119.695312 2.207031 117.886719 C 1.777344 116.082031 1.410156 114.265625 1.105469 112.433594 C 0.800781 110.605469 0.5625 108.765625 0.382812 106.921875 C 0.203125 105.074219 0.0859375 103.222656 0.03125 101.367188 C -0.0195312 99.511719 -0.0117188 97.660156 0.0625 95.804688 C 0.136719 93.953125 0.273438 92.101562 0.472656 90.257812 C 0.671875 88.414062 0.929688 86.578125 1.253906 84.75 C 1.578125 82.925781 1.964844 81.109375 2.414062 79.308594 C 2.859375 77.507812 3.367188 75.726562 3.9375 73.960938 C 4.503906 72.195312 5.132812 70.449219 5.820312 68.726562 C 6.507812 67.003906 7.253906 65.304688 8.058594 63.632812 C 8.859375 61.960938 9.71875 60.316406 10.632812 58.703125 C 11.550781 57.085938 12.519531 55.507812 13.539062 53.957031 C 14.5625 52.410156 15.636719 50.898438 16.761719 49.421875 C 17.886719 47.949219 19.0625 46.511719 20.285156 45.117188 C 21.507812 43.722656 22.777344 42.371094 24.09375 41.0625 C 25.410156 39.753906 26.769531 38.488281 28.167969 37.273438 C 29.570312 36.054688 31.011719 34.890625 32.492188 33.769531 C 33.972656 32.652344 35.488281 31.585938 37.042969 30.570312 C 38.597656 29.554688 40.183594 28.59375 41.800781 27.6875 C 43.421875 26.777344 45.066406 25.925781 46.746094 25.132812 C 48.421875 24.335938 50.125 23.597656 51.851562 22.917969 C 53.578125 22.238281 55.324219 21.621094 57.09375 21.058594 C 58.863281 20.5 60.648438 20 62.453125 19.558594 C 64.257812 19.121094 66.074219 18.742188 67.902344 18.429688 C 69.730469 18.113281 71.566406 17.859375 73.414062 17.667969 C 75.261719 17.480469 77.109375 17.351562 78.964844 17.285156 C 80.820312 17.222656 82.675781 17.21875 84.53125 17.28125 C 86.382812 17.34375 88.234375 17.46875 90.082031 17.65625 C 91.929688 17.84375 93.765625 18.09375 95.59375 18.40625 C 97.425781 18.71875 99.242188 19.09375 101.046875 19.527344 C 102.847656 19.964844 104.636719 20.460938 106.40625 21.019531 Z M 106.871094 23.34375 " fill-opacity="1" fill-rule="nonzero"/><g fill="#000000" fill-opacity="1"><g transform="translate(240.3448, 160.287896)"><g><path d="M 20.546875 0 L 8.578125 0 L 8.578125 -66.015625 L 25.640625 -66.015625 L 42.34375 -17.46875 L 43.296875 -17.46875 L 59.921875 -66.015625 L 76.578125 -66.015625 L 76.578125 0 L 64.203125 0 L 64.203125 -43.609375 L 63.078125 -43.796875 L 47.8125 0 L 36.9375 0 L 21.671875 -43.796875 L 20.546875 -43.609375 Z M 20.546875 0 "/></g></g></g><g fill="#000000" fill-opacity="1"><g transform="translate(325.53229, 160.287896)"><g><path d="M 49.21875 -22.078125 L 17.203125 -22.078125 C 17.566406 -17.742188 18.800781 -14.585938 20.90625 -12.609375 C 23.007812 -10.640625 25.882812 -9.65625 29.53125 -9.65625 C 32.382812 -9.65625 34.695312 -10.191406 36.46875 -11.265625 C 38.25 -12.335938 39.679688 -13.957031 40.765625 -16.125 L 41.71875 -16.125 L 50.03125 -10.796875 C 48.40625 -7.296875 45.953125 -4.460938 42.671875 -2.296875 C 39.390625 -0.128906 35.007812 0.953125 29.53125 0.953125 C 24.382812 0.953125 19.9375 -0.0234375 16.1875 -1.984375 C 12.4375 -3.941406 9.546875 -6.851562 7.515625 -10.71875 C 5.484375 -14.59375 4.46875 -19.3125 4.46875 -24.875 C 4.46875 -30.53125 5.535156 -35.300781 7.671875 -39.1875 C 9.804688 -43.070312 12.695312 -45.96875 16.34375 -47.875 C 19.988281 -49.789062 24.082031 -50.75 28.625 -50.75 C 35.664062 -50.75 41.0625 -48.878906 44.8125 -45.140625 C 48.5625 -41.410156 50.4375 -35.9375 50.4375 -28.71875 C 50.4375 -26.09375 50.34375 -24.0625 50.15625 -22.625 Z M 38.46875 -30.15625 C 38.34375 -33.945312 37.457031 -36.707031 35.8125 -38.4375 C 34.175781 -40.175781 31.78125 -41.046875 28.625 -41.046875 C 22.300781 -41.046875 18.582031 -37.414062 17.46875 -30.15625 Z M 38.46875 -30.15625 "/></g></g></g><g fill="#000000" fill-opacity="1"><g transform="translate(379.66043, 160.287896)"><g><path d="M 24.609375 0.953125 C 20.660156 0.953125 17.171875 0 14.140625 -1.90625 C 11.117188 -3.820312 8.75 -6.710938 7.03125 -10.578125 C 5.320312 -14.453125 4.46875 -19.21875 4.46875 -24.875 C 4.46875 -30.5625 5.347656 -35.335938 7.109375 -39.203125 C 8.867188 -43.078125 11.304688 -45.96875 14.421875 -47.875 C 17.535156 -49.789062 21.140625 -50.75 25.234375 -50.75 C 28.335938 -50.75 31.023438 -50.210938 33.296875 -49.140625 C 35.566406 -48.078125 37.488281 -46.414062 39.0625 -44.15625 L 40 -44.390625 L 40 -69.796875 L 52.515625 -69.796875 L 52.515625 0 L 40 0 L 40 -6.453125 L 39.0625 -6.640625 C 37.675781 -4.285156 35.773438 -2.429688 33.359375 -1.078125 C 30.953125 0.273438 28.035156 0.953125 24.609375 0.953125 Z M 28.671875 -9.65625 C 32.191406 -9.65625 34.972656 -10.910156 37.015625 -13.421875 C 39.066406 -15.941406 40.09375 -19.757812 40.09375 -24.875 C 40.09375 -29.988281 39.066406 -33.8125 37.015625 -36.34375 C 34.972656 -38.875 32.191406 -40.140625 28.671875 -40.140625 C 24.992188 -40.140625 22.1875 -38.910156 20.25 -36.453125 C 18.3125 -34.003906 17.34375 -30.144531 17.34375 -24.875 C 17.34375 -19.632812 18.3125 -15.785156 20.25 -13.328125 C 22.1875 -10.878906 24.992188 -9.65625 28.671875 -9.65625 Z M 28.671875 -9.65625 "/></g></g></g><g fill="#000000" fill-opacity="1"><g transform="translate(439.341332, 160.287896)"><g><path d="M 7.171875 20.1875 L 7.171875 -49.796875 L 19.6875 -49.796875 L 19.6875 -43.296875 L 20.640625 -43.125 C 22.109375 -45.644531 24.078125 -47.546875 26.546875 -48.828125 C 29.015625 -50.109375 31.90625 -50.75 35.21875 -50.75 C 39.21875 -50.75 42.710938 -49.800781 45.703125 -47.90625 C 48.703125 -46.007812 51.035156 -43.125 52.703125 -39.25 C 54.378906 -35.382812 55.21875 -30.59375 55.21875 -24.875 C 55.21875 -19.1875 54.335938 -14.414062 52.578125 -10.5625 C 50.816406 -6.707031 48.367188 -3.820312 45.234375 -1.90625 C 42.109375 0 38.5 0.953125 34.40625 0.953125 C 31.300781 0.953125 28.617188 0.429688 26.359375 -0.609375 C 24.109375 -1.648438 22.203125 -3.269531 20.640625 -5.46875 L 19.6875 -5.28125 L 19.6875 20.1875 Z M 30.921875 -9.65625 C 34.660156 -9.65625 37.492188 -10.875 39.421875 -13.3125 C 41.347656 -15.757812 42.3125 -19.613281 42.3125 -24.875 C 42.3125 -30.144531 41.347656 -34.003906 39.421875 -36.453125 C 37.492188 -38.910156 34.660156 -40.140625 30.921875 -40.140625 C 27.429688 -40.140625 24.660156 -38.875 22.609375 -36.34375 C 20.566406 -33.8125 19.546875 -29.988281 19.546875 -24.875 C 19.546875 -19.789062 20.566406 -15.984375 22.609375 -13.453125 C 24.660156 -10.921875 27.429688 -9.65625 30.921875 -9.65625 Z M 30.921875 -9.65625 "/></g></g></g><g fill="#000000" fill-opacity="1"><g transform="translate(498.977089, 160.287896)"><g><path d="M 20.671875 0.953125 C 16.191406 0.953125 12.769531 -0.257812 10.40625 -2.6875 C 8.039062 -5.113281 6.859375 -8.789062 6.859375 -13.71875 L 6.859375 -69.796875 L 19.375 -69.796875 L 19.375 -14.21875 C 19.375 -11.175781 20.632812 -9.65625 23.15625 -9.65625 C 23.882812 -9.65625 24.65625 -9.78125 25.46875 -10.03125 L 26.09375 -9.84375 L 27.21875 -0.21875 C 26.53125 0.132812 25.613281 0.414062 24.46875 0.625 C 23.320312 0.84375 22.054688 0.953125 20.671875 0.953125 Z M 20.671875 0.953125 "/></g></g></g><g fill="#000000" fill-opacity="1"><g transform="translate(527.598641, 160.287896)"><g><path d="M 22.796875 0.953125 C 17.203125 0.953125 13.070312 -0.570312 10.40625 -3.625 C 7.738281 -6.6875 6.40625 -11.078125 6.40625 -16.796875 L 6.40625 -49.796875 L 18.921875 -49.796875 L 18.921875 -18.375 C 18.921875 -15.332031 19.570312 -13.109375 20.875 -11.703125 C 22.1875 -10.304688 24.210938 -9.609375 26.953125 -9.609375 C 30.410156 -9.609375 33.101562 -10.742188 35.03125 -13.015625 C 36.957031 -15.296875 37.921875 -18.875 37.921875 -23.75 L 37.921875 -49.796875 L 50.4375 -49.796875 L 50.4375 0 L 38.421875 0 L 38.421875 -7.3125 L 37.46875 -7.546875 C 35.875 -4.679688 33.925781 -2.546875 31.625 -1.140625 C 29.320312 0.253906 26.378906 0.953125 22.796875 0.953125 Z M 22.796875 0.953125 "/></g></g></g><g fill="#000000" fill-opacity="1"><g transform="translate(585.2029, 160.287896)"><g><path d="M 7.171875 0 L 7.171875 -49.796875 L 19.1875 -49.796875 L 19.1875 -43.125 L 20.140625 -42.9375 C 21.765625 -45.613281 23.664062 -47.582031 25.84375 -48.84375 C 28.03125 -50.113281 30.820312 -50.75 34.21875 -50.75 C 37.988281 -50.75 41.015625 -50.003906 43.296875 -48.515625 C 45.585938 -47.023438 47.257812 -44.847656 48.3125 -41.984375 L 49.265625 -41.984375 C 50.796875 -44.960938 52.769531 -47.164062 55.1875 -48.59375 C 57.613281 -50.03125 60.632812 -50.75 64.25 -50.75 C 74.570312 -50.75 79.734375 -45 79.734375 -33.5 L 79.734375 0 L 67.234375 0 L 67.234375 -31.921875 C 67.234375 -34.835938 66.660156 -36.941406 65.515625 -38.234375 C 64.367188 -39.535156 62.53125 -40.1875 60 -40.1875 C 53.144531 -40.1875 49.71875 -35.59375 49.71875 -26.40625 L 49.71875 0 L 37.203125 0 L 37.203125 -31.921875 C 37.203125 -34.835938 36.625 -36.941406 35.46875 -38.234375 C 34.3125 -39.535156 32.46875 -40.1875 29.9375 -40.1875 C 26.71875 -40.1875 24.203125 -39.109375 22.390625 -36.953125 C 20.585938 -34.804688 19.6875 -31.382812 19.6875 -26.6875 L 19.6875 0 Z M 7.171875 0 "/></g></g></g></svg>